<svg width="53" height="50" viewBox="0 0 53 50" fill="none" xmlns="http://www.w3.org/2000/svg">
<path d="M18.2188 42.1875C19.1335 42.1875 19.875 41.4879 19.875 40.625C19.875 39.7621 19.1335 39.0625 18.2188 39.0625C17.304 39.0625 16.5625 39.7621 16.5625 40.625C16.5625 41.4879 17.304 42.1875 18.2188 42.1875Z" stroke="white" stroke-width="4" stroke-linecap="round" stroke-linejoin="round"/>
<path d="M41.4062 42.1875C42.321 42.1875 43.0625 41.4879 43.0625 40.625C43.0625 39.7621 42.321 39.0625 41.4062 39.0625C40.4915 39.0625 39.75 39.7621 39.75 40.625C39.75 41.4879 40.4915 42.1875 41.4062 42.1875Z" stroke="white" stroke-width="4" stroke-linecap="round" stroke-linejoin="round"/>
<path d="M4.96875 7.8125H11.5938L16.5625 34.375H43.0625" stroke="white" stroke-width="4" stroke-linecap="round" stroke-linejoin="round"/>
<path d="M16.5625 28.125H42.3834C42.575 28.1251 42.7606 28.0626 42.9088 27.9481C43.0569 27.8336 43.1585 27.6742 43.196 27.4971L46.1773 13.4346C46.2013 13.3212 46.1984 13.2042 46.1687 13.092C46.139 12.9798 46.0833 12.8752 46.0055 12.7858C45.9278 12.6964 45.83 12.6244 45.7192 12.5749C45.6083 12.5255 45.4873 12.4999 45.3647 12.5H13.25" stroke="white" stroke-width="4" stroke-linecap="round" stroke-linejoin="round"/>
</svg>
