<svg width="60" height="57" viewBox="0 0 60 57" fill="none" xmlns="http://www.w3.org/2000/svg">
<path d="M58 28.5C58 13.8698 45.4583 2 30 2C14.5417 2 2 13.8698 2 28.5C2 43.1302 14.5417 55 30 55C45.4583 55 58 43.1302 58 28.5Z" stroke="#F89604" stroke-width="3" stroke-miterlimit="10"/>
<path d="M24.0312 40.5312C24.6353 40.5312 25.125 40.0416 25.125 39.4375C25.125 38.8334 24.6353 38.3438 24.0312 38.3438C23.4272 38.3438 22.9375 38.8334 22.9375 39.4375C22.9375 40.0416 23.4272 40.5312 24.0312 40.5312Z" stroke="#F89604" stroke-width="2" stroke-linecap="round" stroke-linejoin="round"/>
<path d="M39.3438 40.5312C39.9478 40.5312 40.4375 40.0416 40.4375 39.4375C40.4375 38.8334 39.9478 38.3438 39.3438 38.3438C38.7397 38.3438 38.25 38.8334 38.25 39.4375C38.25 40.0416 38.7397 40.5312 39.3438 40.5312Z" stroke="#F89604" stroke-width="2" stroke-linecap="round" stroke-linejoin="round"/>
<path d="M15.2812 16.4688H19.6562L22.9375 35.0625H40.4375" stroke="#F89604" stroke-width="2" stroke-linecap="round" stroke-linejoin="round"/>
<path d="M22.9375 30.6875H39.9891C40.1155 30.6876 40.2381 30.6438 40.336 30.5637C40.4338 30.4835 40.5009 30.372 40.5257 30.2479L42.4944 20.4042C42.5103 20.3248 42.5084 20.2429 42.4888 20.1644C42.4692 20.0858 42.4324 20.0126 42.381 19.95C42.3297 19.8875 42.2651 19.837 42.1919 19.8025C42.1187 19.7679 42.0388 19.7499 41.9578 19.75H20.75" stroke="#F89604" stroke-width="2" stroke-linecap="round" stroke-linejoin="round"/>
</svg>
