<svg width="50" height="50" viewBox="0 0 50 50" fill="none" xmlns="http://www.w3.org/2000/svg">
<path d="M40.625 21.6064V40.625C40.625 41.8682 40.1311 43.0605 39.2521 43.9396C38.373 44.8186 37.1807 45.3125 35.9375 45.3125H14.0625C12.8193 45.3125 11.627 44.8186 10.7479 43.9396C9.86886 43.0605 9.375 41.8682 9.375 40.625V9.375C9.375 8.1318 9.86886 6.93951 10.7479 6.06044C11.627 5.18136 12.8193 4.6875 14.0625 4.6875H23.7061C24.5346 4.68763 25.3291 5.01676 25.915 5.60254L39.71 19.3975C40.2957 19.9834 40.6249 20.7779 40.625 21.6064Z" stroke="white" stroke-width="4" stroke-linejoin="round"/>
<path d="M25 5.46875V17.1875C25 18.0163 25.3292 18.8112 25.9153 19.3972C26.5013 19.9833 27.2962 20.3125 28.125 20.3125H39.8438M17.1875 28.125H32.8125M17.1875 35.9375H32.8125" stroke="white" stroke-width="4" stroke-linecap="round" stroke-linejoin="round"/>
</svg>
