<svg width="50" height="50" viewBox="0 0 50 50" fill="none" xmlns="http://www.w3.org/2000/svg">
<path d="M29.6875 32.8125V36.7188C29.6875 37.7548 29.2759 38.7483 28.5434 39.4809C27.8108 40.2134 26.8173 40.625 25.7812 40.625H10.1562C9.12025 40.625 8.12668 40.2134 7.39411 39.4809C6.66155 38.7483 6.25 37.7548 6.25 36.7188V13.2812C6.25 12.2452 6.66155 11.2517 7.39411 10.5191C8.12668 9.78655 9.12025 9.375 10.1562 9.375H25C27.1572 9.375 29.6875 11.124 29.6875 13.2812V17.1875M35.9375 32.8125L43.75 25L35.9375 17.1875M17.1875 25H42.1875" stroke="white" stroke-width="4" stroke-linecap="round" stroke-linejoin="round"/>
</svg>
