<svg width="50" height="50" viewBox="0 0 50 50" fill="none" xmlns="http://www.w3.org/2000/svg">
<path d="M42.5049 4.6875H30.5029C30.1298 4.68723 29.7716 4.83469 29.5068 5.09766L5.5127 29.0918C4.98732 29.6198 4.69238 30.3343 4.69238 31.0791C4.69238 31.8239 4.98732 32.5385 5.5127 33.0664L16.9385 44.4922C17.4664 45.0176 18.181 45.3125 18.9258 45.3125C19.6706 45.3125 20.3851 45.0176 20.9131 44.4922L44.8975 20.5078C45.1604 20.243 45.3079 19.8849 45.3076 19.5117V7.5C45.3094 7.13098 45.2382 6.76524 45.0981 6.42383C44.9581 6.08243 44.7518 5.7721 44.4913 5.5107C44.2309 5.24931 43.9212 5.042 43.5803 4.90073C43.2394 4.75945 42.8739 4.68698 42.5049 4.6875Z" stroke="white" stroke-width="3" stroke-linecap="round" stroke-linejoin="round"/>
<path d="M37.5 15.625C36.8819 15.625 36.2777 15.4417 35.7638 15.0983C35.2499 14.755 34.8494 14.2669 34.6129 13.6959C34.3764 13.1249 34.3145 12.4965 34.435 11.8903C34.5556 11.2842 34.8533 10.7273 35.2903 10.2903C35.7273 9.85325 36.2842 9.55563 36.8903 9.43505C37.4965 9.31447 38.1249 9.37635 38.6959 9.61288C39.2669 9.8494 39.755 10.2499 40.0983 10.7638C40.4417 11.2777 40.625 11.8819 40.625 12.5C40.625 13.3288 40.2958 14.1237 39.7097 14.7097C39.1237 15.2958 38.3288 15.625 37.5 15.625Z" fill="white"/>
</svg>
