<svg width="24" height="24" viewBox="0 0 24 24" fill="none" xmlns="http://www.w3.org/2000/svg">
<path d="M23.4059 10.1507L23.2848 9.63698H12.1184V14.363H18.7902C18.0975 17.6523 14.8832 19.3838 12.2577 19.3838C10.3473 19.3838 8.33358 18.5802 7.00072 17.2886C6.2975 16.5962 5.73775 15.772 5.3535 14.863C4.96925 13.9541 4.76806 12.9783 4.76143 11.9914C4.76143 10.0007 5.65608 8.00948 6.95786 6.69966C8.25965 5.38983 10.2257 4.65698 12.1805 4.65698C14.4193 4.65698 16.0238 5.84573 16.6238 6.38787L19.9821 3.04716C18.997 2.18144 16.2905 1.23978e-05 12.0723 1.23978e-05C8.81786 1.23978e-05 5.69733 1.24662 3.41626 3.52019C1.16518 5.75894 5.72205e-06 8.99626 5.72205e-06 12C5.72205e-06 15.0038 1.10251 18.0793 3.28393 20.3357C5.61483 22.7422 8.9159 24 12.315 24C15.4077 24 18.3391 22.7882 20.4284 20.5897C22.4823 18.4254 23.5446 15.4307 23.5446 12.2914C23.5446 10.9698 23.4118 10.185 23.4059 10.1507Z" fill="white"/>
</svg>
