<svg width="40" height="20" viewBox="0 0 24 27" fill="none" xmlns="http://www.w3.org/2000/svg">
<path d="M16.0719 20.6875V21.625C16.0719 22.6196 15.6769 23.5734 14.9736 24.2766C14.2703 24.9799 13.3165 25.375 12.3219 25.375C11.3274 25.375 10.3736 24.9799 9.67029 24.2766C8.96703 23.5734 8.57194 22.6196 8.57194 21.625V20.6875M22.3813 18.7791C20.8766 16.9375 19.8143 16 19.8143 10.9229C19.8143 6.27344 17.4401 4.61699 15.486 3.8125C15.2264 3.70586 14.9821 3.46094 14.903 3.19434C14.5602 2.02773 13.5993 1 12.3219 1C11.0446 1 10.0831 2.02832 9.74382 3.19551C9.66472 3.46504 9.42038 3.70586 9.16081 3.8125C7.20437 4.61816 4.83249 6.26875 4.83249 10.9229C4.82956 16 3.76726 16.9375 2.26257 18.7791C1.63913 19.542 2.18523 20.6875 3.27566 20.6875H21.3741C22.4587 20.6875 23.0012 19.5385 22.3813 18.7791Z" stroke="white" stroke-width="2" stroke-linecap="round" stroke-linejoin="round"/>
</svg>
