<svg width="30" height="30" viewBox="0 0 30 30" fill="none" xmlns="http://www.w3.org/2000/svg">
<path d="M21.0129 7.57503L5.06777 23.5594L4.10156 25.8985L6.44062 24.9323L22.425 8.98714L21.0129 7.57503ZM24.2033 4.38519L23.5125 5.07542L24.9246 6.48753L25.6154 5.79671C25.7967 5.61531 25.8985 5.36936 25.8985 5.11292C25.8985 4.85648 25.7967 4.61053 25.6154 4.42913L25.5715 4.38519C25.4817 4.29534 25.375 4.22408 25.2576 4.17546C25.1403 4.12683 25.0144 4.10181 24.8874 4.10181C24.7604 4.10181 24.6346 4.12683 24.5172 4.17546C24.3998 4.22408 24.2932 4.29534 24.2033 4.38519Z" stroke="black" stroke-width="2" stroke-linecap="round" stroke-linejoin="round"/>
</svg>
