<svg width="28" height="28" viewBox="0 0 28 28" fill="none" xmlns="http://www.w3.org/2000/svg">
<path d="M14 17.5C15.933 17.5 17.5 15.933 17.5 14C17.5 12.067 15.933 10.5 14 10.5C12.067 10.5 10.5 12.067 10.5 14C10.5 15.933 12.067 17.5 14 17.5Z" fill="white" fill-opacity="0.5"/>
<path d="M26.8429 13.0484C25.3959 10.8106 23.5185 8.90969 21.4141 7.5507C19.0861 6.0457 16.5157 5.25 13.9815 5.25C11.6562 5.25 9.36972 5.91445 7.1855 7.22477C4.95808 8.56078 2.94011 10.5126 1.18738 13.0255C0.989512 13.3095 0.880539 13.6459 0.874307 13.9919C0.868074 14.338 0.964865 14.6781 1.15238 14.9691C2.59668 17.2293 4.4555 19.133 6.52707 20.4734C8.85949 21.9844 11.3696 22.75 13.9815 22.75C16.536 22.75 19.1118 21.9609 21.43 20.4684C23.5332 19.1138 25.4068 17.2058 26.8484 14.9494C27.0294 14.6652 27.1252 14.3351 27.1242 13.9981C27.1232 13.6612 27.0256 13.3316 26.8429 13.0484ZM14.0001 19.25C12.9618 19.25 11.9467 18.9421 11.0834 18.3652C10.22 17.7883 9.54711 16.9684 9.14975 16.0091C8.75239 15.0498 8.64842 13.9942 8.85099 12.9758C9.05356 11.9574 9.55358 11.0219 10.2878 10.2877C11.022 9.55346 11.9575 9.05345 12.9759 8.85088C13.9943 8.64831 15.0499 8.75227 16.0092 9.14963C16.9685 9.54699 17.7885 10.2199 18.3653 11.0833C18.9422 11.9466 19.2501 12.9616 19.2501 14C19.2485 15.3919 18.6949 16.7263 17.7107 17.7106C16.7264 18.6948 15.392 19.2484 14.0001 19.25Z" fill="white" fill-opacity="0.5"/>
</svg>
