<?xml version="1.0" standalone="no"?>
<!DOCTYPE svg PUBLIC "-//W3C//DTD SVG 20010904//EN"
 "http://www.w3.org/TR/2001/REC-SVG-20010904/DTD/svg10.dtd">
<svg version="1.0" xmlns="http://www.w3.org/2000/svg"
 width="600.000000pt" height="400.000000pt" viewBox="0 0 600.000000 400.000000"
 preserveAspectRatio="xMidYMid meet">

<g transform="translate(0.000000,400.000000) scale(0.100000,-0.100000)"
fill="#000000" stroke="none">
<path d="M2160 3059 c0 -4 -8 -5 -18 -2 -11 2 -32 -8 -52 -26 -29 -25 -60 -38
-72 -29 -2 1 -14 -5 -28 -12 -14 -8 -29 -15 -35 -15 -40 -4 -62 -18 -58 -36 3
-11 10 -22 16 -26 6 -3 7 -1 3 5 -8 13 2 15 46 12 26 -1 55 29 41 44 -9 9 20
7 32 -2 19 -14 15 -40 -10 -56 -14 -9 -25 -23 -25 -30 0 -8 -7 -16 -15 -19 -8
-4 -21 -23 -30 -43 -13 -31 -17 -35 -30 -24 -9 7 -14 19 -11 25 2 7 0 18 -4
26 -6 8 -4 16 3 21 18 11 -22 36 -47 30 -20 -5 -20 -5 -3 12 24 24 21 36 -8
36 -27 0 -50 -37 -46 -72 2 -12 -5 -18 -18 -18 -13 0 -19 -5 -15 -14 3 -8 0
-17 -6 -21 -7 -4 -10 0 -8 11 2 12 -7 23 -25 32 -31 15 -48 9 -29 -10 7 -7 12
-23 12 -38 0 -14 -4 -20 -8 -14 -4 6 -19 14 -34 18 l-28 6 30 -30 c33 -34 39
-60 13 -60 -9 0 -14 -3 -10 -6 7 -7 -50 -57 -69 -60 -21 -3 -17 14 5 26 11 5
22 23 26 39 5 24 10 28 28 23 13 -3 18 -1 14 4 -11 11 -97 14 -97 4 0 -5 -9
-6 -20 -3 -24 6 -27 23 -4 23 8 0 12 5 9 10 -3 6 -2 10 4 10 5 0 12 -6 14 -12
4 -8 6 -9 6 -2 1 6 -6 17 -14 24 -10 9 -15 9 -15 1 0 -6 -4 -11 -10 -11 -5 0
-10 7 -10 15 0 8 -4 15 -9 15 -5 0 -8 -8 -7 -17 0 -10 -7 -18 -19 -20 -11 -1
-15 0 -9 3 6 2 9 15 7 28 -4 20 -10 23 -36 21 -18 -2 -40 -3 -49 -4 -13 -1
-17 -10 -16 -40 0 -41 11 -50 68 -51 25 -1 25 -1 3 -10 -36 -15 -83 7 -83 37
0 18 -4 24 -14 20 -8 -3 -17 -1 -20 6 -3 8 -8 6 -16 -5 -13 -21 -40 -24 -40
-5 0 19 -43 37 -61 27 -15 -10 -14 -12 24 -28 26 -11 38 -42 16 -42 -7 0 1
-12 17 -27 27 -25 27 -27 9 -33 -11 -4 -23 -3 -26 2 -3 5 -29 6 -58 2 -44 -6
-55 -11 -64 -33 -6 -14 -17 -30 -24 -34 -8 -5 -11 -18 -7 -33 5 -18 2 -24 -9
-24 -9 0 -20 6 -24 13 -4 8 -21 17 -38 21 -29 7 -30 7 -8 -9 12 -8 33 -39 47
-69 16 -34 33 -56 47 -59 15 -4 20 -11 15 -22 -4 -11 2 -19 22 -26 28 -9 58
-46 48 -57 -3 -3 -6 0 -6 6 0 7 -7 12 -16 12 -9 0 -23 8 -30 18 -13 16 -15 16
-27 0 -8 -10 -16 -15 -19 -12 -5 5 -78 -34 -88 -47 -3 -3 -16 -10 -29 -14 -21
-6 -23 -5 -17 11 5 16 4 17 -6 4 -47 -57 -112 -75 -157 -44 -26 19 -98 14
-113 -8 -16 -25 -21 -62 -10 -66 7 -2 10 -8 7 -12 -3 -5 3 -18 14 -29 16 -16
20 -17 25 -5 3 9 1 12 -4 9 -15 -9 -12 21 3 33 13 11 88 -8 114 -30 7 -5 17
-7 24 -3 7 5 9 1 7 -11 -2 -11 -10 -18 -17 -16 -8 1 -4 -8 8 -24 12 -15 21
-33 21 -40 0 -11 18 -21 42 -25 4 0 31 -7 60 -15 65 -17 99 -18 149 -2 49 14
55 45 9 45 -35 0 -50 11 -31 22 11 7 8 12 -10 21 -13 7 -26 14 -28 16 -5 4 26
34 35 34 5 0 3 -5 -4 -12 -7 -7 -12 -16 -12 -22 0 -6 5 -5 11 1 9 9 19 8 42
-3 25 -13 31 -14 38 -2 14 22 11 27 -23 31 l-33 4 37 1 c28 2 38 7 43 23 5 15
10 18 15 10 4 -7 17 -10 31 -6 14 3 35 2 48 -3 22 -8 22 -9 7 -25 -16 -15 -21
-15 -53 -2 -46 19 -46 19 -18 -11 14 -15 29 -23 36 -19 7 5 10 3 7 -6 -5 -17
-47 -25 -49 -10 -3 26 -4 30 -12 38 -5 4 -7 -6 -5 -22 2 -24 -1 -30 -14 -29
-10 1 -18 -2 -18 -7 0 -9 22 -13 50 -9 10 1 9 -3 -5 -14 -32 -24 3 -20 82 9
64 25 68 25 80 8 23 -34 34 -43 44 -38 5 4 9 2 9 -4 0 -10 39 -9 57 2 18 11
76 -4 64 -16 -16 -16 -14 -23 15 -36 16 -7 49 -9 87 -6 66 7 167 -18 175 -43
2 -7 -2 -10 -11 -6 -21 8 -33 -17 -13 -28 9 -5 16 -16 16 -24 0 -8 13 -17 30
-20 29 -6 43 -33 18 -35 -7 0 -2 -5 12 -11 25 -11 24 -11 -13 -18 -45 -8 -57
-18 -37 -30 26 -16 48 -11 82 20 18 17 39 28 46 25 8 -3 32 0 53 5 26 7 51 8
77 1 22 -6 52 -7 75 -2 23 6 39 5 43 -1 10 -15 46 24 41 44 -3 11 0 18 10 18
8 0 11 -4 8 -10 -3 -5 1 -10 10 -10 8 0 18 7 21 15 4 8 11 12 16 9 14 -9 29
17 22 41 -4 15 -3 17 5 6 8 -12 15 -9 44 16 35 30 35 31 15 48 -26 22 -14 30
62 45 30 6 65 16 77 22 11 6 26 7 32 4 17 -11 44 40 37 70 -7 27 -42 63 -61
64 -6 0 -16 9 -22 19 -11 17 -9 21 8 26 11 4 26 1 34 -5 8 -6 19 -9 24 -5 6 3
21 1 33 -6 41 -22 76 -20 94 4 11 15 15 16 11 5 -9 -27 21 -38 76 -27 28 5 57
5 71 -1 13 -5 26 -7 29 -4 2 2 16 0 29 -5 19 -7 31 -6 47 5 11 8 21 13 21 9 0
-3 14 2 31 11 23 12 30 12 27 3 -3 -8 -15 -16 -28 -19 -32 -7 -36 -26 -8 -34
19 -6 13 -10 -39 -30 -75 -28 -113 -52 -113 -70 0 -8 -6 -17 -12 -19 -7 -3 -1
-6 14 -6 15 -1 30 -6 33 -11 4 -6 11 -8 16 -4 5 3 16 1 23 -5 7 -6 25 -12 39
-13 14 -1 23 -6 21 -10 -3 -4 11 -7 31 -6 28 1 35 5 30 17 -5 11 -1 11 14 -3
13 -11 27 -15 40 -11 14 4 21 2 21 -6 0 -7 3 -9 8 -5 4 4 7 13 7 19 0 13 44
10 61 -4 6 -5 14 -6 17 -2 4 3 7 1 7 -5 0 -13 -44 -27 -57 -19 -5 3 -27 2 -50
-3 -22 -5 -53 -10 -69 -10 -16 0 -46 0 -67 0 -37 -1 -84 17 -73 27 6 6 -37 43
-51 43 -4 0 -13 -10 -18 -22 -12 -25 -88 -77 -79 -53 8 19 -10 19 -26 1 -6 -8
-19 -12 -27 -9 -13 5 -15 2 -11 -15 3 -12 1 -23 -6 -25 -6 -2 -11 -10 -12 -18
-4 -57 -2 -55 -24 -31 -12 12 -24 22 -28 22 -4 0 -23 14 -42 30 -33 28 -45 34
-63 31 -4 -1 0 11 10 26 17 27 17 27 0 14 -11 -8 -39 -14 -70 -13 -29 0 -46
-2 -39 -4 6 -3 12 -16 12 -29 0 -27 10 -36 59 -50 19 -6 36 -17 39 -25 3 -8 1
-12 -3 -8 -5 5 -21 -6 -37 -24 -15 -17 -31 -28 -35 -25 -3 4 -1 7 5 7 25 0 10
15 -17 17 -33 2 -71 -28 -71 -57 0 -14 -7 -20 -22 -20 -13 0 -30 -5 -38 -10
-11 -7 -7 -10 18 -10 20 0 31 -4 27 -10 -4 -6 -3 -10 2 -9 21 4 33 -2 33 -16
0 -8 5 -15 10 -15 6 0 10 7 10 15 0 10 10 14 35 13 32 -1 41 -18 9 -18 -8 0
-13 -4 -10 -9 7 -10 -40 -24 -54 -16 -5 3 -11 1 -14 -4 -4 -5 3 -13 15 -16 14
-5 19 -13 16 -25 -4 -16 3 -20 47 -25 68 -9 122 -40 142 -83 l16 -34 24 23
c31 29 30 30 -7 22 -29 -5 -30 -4 -21 14 6 11 18 25 26 33 9 7 16 18 16 25 0
7 7 16 16 19 13 5 15 2 11 -14 -7 -26 0 -25 24 3 l19 22 28 -32 c27 -32 57
-43 64 -24 2 5 38 11 81 14 43 3 75 2 72 -3 -3 -4 1 -11 7 -13 7 -3 -9 -3 -37
-1 -36 3 -44 1 -30 -5 11 -5 47 -9 80 -9 33 0 51 3 41 5 -15 4 -16 7 -5 14 10
6 8 9 -10 9 -19 0 -22 3 -13 12 6 6 19 12 29 13 10 0 24 5 31 9 7 4 16 5 20 1
3 -3 0 -10 -8 -15 -11 -7 -7 -10 15 -10 29 -1 29 -1 11 -15 -27 -20 -11 -19
52 5 56 21 109 70 89 82 -8 5 -8 10 1 20 27 33 -82 118 -152 118 -19 0 -61 7
-93 16 -80 22 -135 18 -193 -11 -27 -14 -52 -25 -55 -25 -14 0 4 73 23 95 24
28 28 45 10 45 -6 0 -3 9 7 20 10 11 24 20 32 20 8 0 11 5 8 10 -3 6 1 10 9
10 9 0 16 -5 16 -11 0 -5 5 -7 10 -4 14 8 130 -27 123 -37 -2 -5 -14 -6 -26
-3 -21 6 -21 6 -2 -6 11 -7 22 -16 25 -20 8 -12 90 14 90 28 0 21 58 16 69 -6
6 -10 7 -21 3 -25 -9 -10 20 -26 33 -18 22 14 55 8 55 -10 0 -10 6 -18 13 -18
6 0 23 -3 37 -7 22 -6 24 -5 11 10 -12 15 -11 17 7 17 11 0 22 -4 24 -10 5
-15 87 -26 140 -20 30 4 56 1 70 -7 13 -7 46 -12 74 -13 46 0 58 -5 105 -44
88 -71 158 -115 202 -127 23 -6 75 -29 115 -50 40 -21 74 -39 76 -39 2 0 6 13
9 28 4 17 17 34 34 42 15 8 34 21 41 27 7 7 31 16 53 19 27 5 39 12 39 23 0 9
3 12 8 6 4 -5 14 -11 22 -13 8 -2 19 -10 23 -18 10 -17 60 -44 83 -44 13 0 14
3 4 15 -7 8 -21 15 -32 15 -10 0 -16 4 -13 10 3 5 12 10 20 10 8 0 26 5 42 12
33 14 52 17 117 21 51 2 80 27 32 27 -14 0 -26 4 -26 10 0 5 -8 6 -17 3 -16
-6 -16 -5 -4 10 12 16 11 16 -28 2 -52 -18 -101 -15 -124 8 -18 18 -18 19 15
16 22 -2 32 1 30 9 -1 7 9 12 23 12 14 0 25 -4 25 -9 0 -13 42 -21 59 -11 11
6 12 9 3 10 -7 0 -10 5 -7 10 9 14 18 13 41 -6 16 -13 16 -15 2 -10 -10 3 -18
1 -18 -4 0 -6 10 -10 23 -10 15 0 18 -3 9 -8 -8 -6 -1 -9 20 -9 18 0 40 5 48
12 8 6 26 12 39 13 38 2 46 26 11 35 -37 9 -48 27 -17 27 13 0 42 9 65 20 22
11 47 20 55 20 8 0 32 7 53 16 35 15 37 15 25 0 -11 -14 -11 -16 4 -16 13 0
16 6 11 25 -5 20 -3 25 11 25 16 0 16 2 3 11 -13 9 -12 10 2 5 10 -3 21 1 26
11 7 11 11 12 17 4 4 -7 -2 -21 -14 -32 -21 -20 -28 -39 -13 -39 13 1 42 27
42 38 0 6 7 17 15 25 13 13 10 16 -20 21 -19 4 -44 2 -55 -4 -21 -11 -27 -1
-9 17 8 8 2 13 -23 18 -18 4 -47 20 -63 36 -26 24 -45 31 -112 40 -76 11 -85
10 -137 -11 -33 -13 -68 -20 -86 -18 -17 3 -33 1 -36 -4 -3 -4 -12 -8 -20 -8
-10 0 -7 7 8 22 l23 23 -35 5 c-45 8 -76 25 -61 34 6 4 11 3 11 -2 0 -6 17
-13 38 -17 20 -4 42 -11 48 -16 7 -6 21 -6 37 0 46 18 203 25 235 12 22 -9 44
-10 88 -2 36 7 60 8 62 2 2 -6 15 -5 33 1 16 6 41 8 55 5 19 -3 29 2 44 24 19
25 78 69 94 69 4 0 -2 -13 -13 -29 -12 -16 -21 -36 -21 -44 0 -16 -103 -60
-108 -46 -5 13 -32 11 -32 -1 0 -6 8 -13 18 -16 9 -3 27 -11 39 -16 12 -6 30
-8 39 -4 16 6 16 5 -1 -14 l-19 -21 52 20 c29 12 55 21 57 21 3 0 5 7 5 15 0
8 5 15 10 15 6 0 10 7 10 15 0 9 -6 12 -17 8 -12 -4 -9 4 10 24 27 29 27 32
11 41 -17 9 -16 13 9 51 15 22 27 43 27 46 0 3 -12 5 -27 5 -39 0 -63 26 -56
61 5 24 2 29 -14 29 -11 0 -29 -9 -41 -20 -40 -38 -70 -22 -47 24 17 32 10 53
-11 35 -11 -9 -14 -8 -14 5 0 9 5 16 11 16 5 0 8 4 5 9 -6 10 -18 9 -53 -3
-13 -4 -23 -11 -23 -16 0 -5 -6 -7 -13 -4 -18 6 -42 -22 -27 -31 5 -3 10 -11
10 -17 0 -7 -4 -7 -13 1 -8 6 -17 8 -20 4 -4 -3 -13 0 -22 7 -12 10 -20 6 -46
-23 -20 -23 -37 -33 -49 -30 -26 7 -13 33 17 33 16 0 22 4 17 12 -4 7 -3 8 4
4 7 -4 12 -3 12 3 0 5 14 13 32 16 l32 7 -28 15 c-26 14 -27 16 -20 69 5 46 4
57 -11 68 -16 11 -14 12 14 8 17 -2 34 -8 37 -13 3 -5 15 -9 27 -9 l21 0 -21
15 c-12 9 -20 22 -17 29 7 18 -22 29 -67 27 -21 -1 -40 2 -44 8 -4 7 7 11 30
11 39 0 44 15 9 34 -10 6 -21 14 -24 17 -6 7 -29 9 -85 9 -59 -1 -74 -8 -68
-30 3 -11 0 -27 -7 -35 -18 -22 -9 -26 31 -15 31 9 32 8 15 -5 -21 -16 -22
-16 -101 -20 -47 -2 -144 -30 -155 -46 -14 -18 -67 5 -91 41 l-27 37 32 -7
c17 -4 44 -13 59 -19 16 -6 33 -9 38 -5 19 12 7 24 -30 30 -22 4 -42 12 -44
18 -3 8 5 11 25 8 23 -4 29 -1 26 9 -3 8 -13 15 -24 17 -15 2 -20 11 -20 42
-1 22 1 40 3 40 3 0 18 -10 35 -21 23 -16 29 -28 25 -46 -6 -33 29 -53 49 -26
13 17 13 17 14 -4 0 -13 8 -24 20 -28 11 -3 20 -11 20 -16 0 -5 9 -4 20 3 11
7 20 17 20 22 0 5 -3 7 -6 4 -3 -4 -14 2 -24 12 -9 9 -24 20 -31 22 -24 9 32
47 71 49 24 1 28 3 13 6 -13 2 -23 9 -23 14 0 5 -21 9 -46 9 -25 0 -43 -4 -40
-9 3 -5 0 -11 -7 -13 -16 -6 -70 16 -61 25 4 4 0 7 -9 7 -10 0 -17 5 -17 10 0
13 23 13 37 -1 8 -8 13 -8 17 0 4 6 18 11 31 11 27 0 39 24 20 40 -11 9 -17 7
-27 -9 -14 -23 -38 -27 -54 -11 -7 7 -22 6 -46 -4 -19 -9 -38 -13 -41 -10 -8
9 -87 -38 -81 -48 3 -4 0 -9 -5 -9 -6 -1 -14 -2 -19 -3 -4 0 -18 -11 -32 -23
-13 -13 -30 -23 -38 -23 -20 0 22 42 68 67 19 11 35 27 35 36 0 8 4 19 8 23 4
4 7 1 7 -6 0 -11 4 -11 16 2 21 21 11 37 -21 30 -17 -3 -25 -11 -25 -25 0 -18
-2 -19 -17 -5 -23 20 -70 31 -78 18 -3 -5 -11 -10 -16 -10 -6 0 -8 4 -4 9 8
14 -31 23 -68 16 -17 -4 -46 -18 -64 -31 l-31 -24 5 30 c3 25 1 30 -15 30 -11
0 -31 9 -45 20 -14 11 -28 20 -31 20 -3 0 -6 -20 -6 -44 0 -47 13 -65 51 -68
22 -2 24 -6 26 -65 2 -48 -1 -65 -12 -70 -8 -3 -15 -14 -15 -24 0 -11 -7 -19
-16 -19 -10 0 -14 6 -11 14 9 22 -19 39 -54 32 -16 -3 -28 -2 -25 3 8 12 -62
42 -116 48 -37 4 -48 3 -48 -8 0 -12 -2 -12 -9 0 -6 9 -20 11 -50 6 -22 -4
-43 -10 -46 -15 -2 -4 -18 -6 -35 -4 -16 2 -30 0 -30 -5 0 -4 -10 -13 -22 -20
-20 -10 -18 -11 17 -5 39 6 39 5 22 -13 -9 -11 -17 -35 -17 -54 0 -35 -30
-119 -42 -119 -4 0 -15 11 -24 26 -30 45 -68 57 -156 50 -85 -7 -155 -21 -205
-43 -24 -10 -34 -22 -39 -47 -5 -30 0 -41 36 -88 23 -29 46 -54 51 -56 16 -6
49 19 65 51 21 40 31 47 70 47 16 0 39 7 50 15 10 8 29 15 41 15 12 0 24 4 28
10 3 5 44 8 93 6 93 -3 137 8 161 42 9 13 21 18 34 14 16 -4 19 -1 15 14 -5
22 24 55 40 45 8 -4 5 -17 -8 -36 -11 -17 -20 -42 -20 -57 0 -23 4 -28 25 -28
14 0 25 5 25 10 0 6 -4 10 -10 10 -5 0 -10 8 -10 19 0 27 44 53 77 45 22 -6
25 -4 20 9 -4 12 -1 16 11 15 39 -3 67 2 54 10 -7 5 -10 16 -6 25 7 19 24 23
24 7 0 -6 18 -30 40 -53 52 -53 49 -72 -10 -72 -39 0 -45 -3 -48 -23 -2 -13
-10 -26 -18 -29 -8 -3 -14 -11 -14 -19 0 -19 -38 -18 -85 2 -22 9 -78 17 -135
19 -96 4 -97 4 -130 -25 -28 -25 -31 -30 -14 -30 11 0 25 -5 30 -10 8 -8 15
-6 24 5 14 17 45 21 34 4 -4 -8 1 -9 17 -4 13 4 21 4 17 0 -4 -5 -1 -13 8 -20
14 -9 12 -11 -12 -11 -18 1 -28 -5 -30 -17 -1 -9 2 -14 7 -11 6 3 17 0 26 -8
11 -8 14 -8 10 -1 -5 8 0 11 13 10 21 -1 34 -22 24 -39 -4 -6 -10 -5 -15 3 -5
9 -9 10 -9 2 0 -7 -14 -10 -42 -6 -29 3 -38 1 -28 -5 25 -16 70 -23 70 -12 0
6 16 4 38 -6 41 -18 98 -35 124 -37 9 -1 15 -5 12 -8 -10 -16 25 -23 123 -25
71 -1 110 -6 125 -16 13 -9 60 -17 111 -21 48 -3 92 -9 98 -13 6 -3 31 -7 56
-9 44 -3 73 -18 60 -31 -4 -4 -13 -2 -21 5 -11 9 -15 9 -19 -1 -4 -10 -9 -8
-17 5 -14 23 -32 22 -48 -3 -10 -16 -16 -18 -38 -9 -50 18 -37 -1 17 -26 45
-22 48 -25 19 -19 -19 4 -58 8 -86 9 -59 2 -84 13 -63 26 16 10 5 12 -41 10
-34 -2 -60 16 -41 28 17 11 -3 26 -21 15 -7 -5 -9 -2 -6 8 6 15 -10 17 -47 5
-55 -17 -88 -17 -132 3 -25 11 -61 20 -79 20 -19 0 -34 5 -34 11 0 7 -14 10
-37 7 -30 -4 -43 1 -63 20 -14 13 -45 33 -70 43 -34 16 -41 22 -30 30 13 8 13
10 0 19 -12 7 -12 10 -1 10 8 0 11 6 7 16 -3 8 -2 12 3 9 5 -3 12 -1 16 5 3 5
-3 10 -14 10 -11 0 -22 -8 -24 -17 -4 -17 -5 -17 -6 0 0 10 -5 15 -11 12 -5
-3 -10 0 -10 8 0 8 -6 17 -14 20 -9 4 -12 0 -9 -13 5 -18 4 -18 -33 1 -21 10
-47 19 -57 19 -24 0 -57 -18 -57 -31 0 -11 -41 -72 -52 -77 -4 -2 -29 -21 -55
-43 -64 -53 -136 -55 -94 -3 24 30 74 54 98 48 12 -3 23 -1 27 4 11 18 -43 23
-74 7 -34 -18 -50 -13 -50 16 0 10 -4 19 -9 19 -5 0 -23 14 -39 30 -45 45 -68
40 -76 -15 -4 -25 -9 -45 -12 -45 -19 0 -54 36 -54 56 0 19 -5 24 -24 24 -15
0 -26 7 -29 20 -3 12 -14 20 -27 20 -17 0 -20 -4 -15 -20 3 -10 1 -28 -5 -39
-5 -11 -11 -31 -12 -45 -3 -28 -18 -36 -18 -10 0 10 -5 12 -12 7 -25 -15 -64
-17 -183 -8 -78 7 -118 6 -143 0 -15 -4 -21 -2 -17 4 3 6 0 8 -9 5 -8 -3 -23
-1 -34 5 -15 8 -22 8 -25 -2 -3 -9 -9 -9 -23 -1 -11 5 -37 11 -58 13 -40 2
-40 2 -21 -19 15 -17 16 -20 3 -20 -9 0 -21 -6 -27 -14 -9 -11 -5 -15 24 -20
39 -8 41 -11 21 -32 -9 -9 -31 -13 -59 -11 -41 2 -44 1 -36 -15 7 -14 18 -17
44 -12 22 3 35 1 35 -5 0 -6 -7 -11 -16 -11 -8 0 -12 -5 -9 -11 4 -6 13 -8 21
-5 8 3 11 0 7 -10 -6 -16 -23 -19 -23 -4 0 6 -9 10 -20 10 -11 0 -20 5 -20 10
0 6 -7 10 -15 10 -9 0 -18 7 -22 16 -5 15 -7 15 -15 0 -10 -18 -31 -10 -113
44 -24 16 -31 17 -33 6 -2 -11 -10 -12 -33 -6 -18 5 -27 5 -24 -1 4 -5 -1 -9
-9 -9 -9 0 -16 7 -16 15 0 8 -6 15 -14 15 -8 0 -18 4 -21 10 -4 6 1 7 12 3 14
-4 15 -3 7 6 -6 7 -28 14 -49 16 -21 2 -41 9 -45 16 -6 9 -19 9 -51 2 -24 -6
-51 -11 -59 -11 -35 0 -167 -13 -184 -18 -17 -6 -17 -7 -3 -15 10 -6 30 -4 55
4 21 7 47 10 58 6 15 -6 9 -12 -37 -32 -55 -25 -57 -25 -102 -9 -38 13 -48 14
-61 3 -9 -7 -16 -20 -16 -28 0 -10 -6 -12 -21 -8 -15 5 -19 4 -15 -4 5 -7 -3
-11 -21 -11 -27 1 -27 1 -9 15 11 8 24 15 30 15 7 0 7 3 0 10 -11 11 -87 27
-179 39 -45 5 -48 7 -30 18 18 11 18 12 3 13 -10 0 -18 7 -18 15 0 11 17 15
83 15 251 1 262 2 282 20 11 9 43 30 70 46 28 15 52 32 53 36 2 5 16 -1 32
-12 49 -35 260 -67 260 -40 0 6 18 10 40 10 22 0 40 4 40 8 0 5 26 9 58 9 31
1 69 6 85 12 31 12 37 41 8 41 -10 0 -24 7 -31 15 -11 13 -8 15 16 16 28 0 29
1 6 11 -15 8 -26 8 -33 1 -10 -10 -105 9 -118 23 -3 4 2 4 12 1 16 -6 21 3 20
40 0 6 6 9 15 6 11 -5 13 -3 7 7 -6 10 1 11 31 6 22 -3 49 -6 62 -6 12 0 22
-5 22 -10 0 -7 6 -7 18 -2 12 7 27 4 52 -10 l35 -19 -30 3 c-16 1 -36 6 -42
11 -8 6 -13 6 -13 -1 0 -9 23 -23 45 -27 6 -1 25 -5 43 -10 l33 -8 -31 -18
c-43 -27 -37 -32 8 -9 37 19 136 26 126 8 -4 -6 49 -27 79 -32 7 -1 18 -5 25
-10 7 -4 20 -2 29 5 50 42 99 60 129 48 28 -10 64 -4 75 14 9 13 32 -2 26 -17
-3 -7 4 -13 14 -13 11 -1 17 2 14 8 -4 5 -1 9 4 9 7 0 7 7 -1 20 -15 23 -36
25 -63 6 -23 -16 -88 -10 -82 8 5 14 47 21 47 7 0 -6 5 -11 11 -11 5 0 7 5 4
11 -8 11 25 40 37 33 4 -3 5 1 3 8 -3 7 -24 26 -48 40 -23 15 -53 35 -66 45
-20 14 -46 18 -125 19 -56 0 -110 4 -120 9 -11 5 -17 5 -14 -1 4 -5 -6 -10
-20 -10 -31 -1 -72 -11 -80 -19 -6 -6 30 -9 75 -6 26 2 31 -1 27 -16 -8 -30
-60 -45 -106 -31 -42 12 -53 34 -13 24 14 -4 25 -2 25 3 0 11 -43 23 -85 25
-18 1 -29 6 -28 14 4 18 -21 15 -40 -5 -8 -10 -19 -30 -22 -45 -10 -40 -42
-37 -61 5 -7 17 -26 47 -40 65 -15 18 -21 30 -13 28 8 -3 39 -7 69 -11 30 -3
57 -9 60 -14 3 -5 23 -5 45 -2 31 5 40 10 40 26 0 15 12 23 48 33 43 12 53 12
83 -3 42 -20 42 -20 172 -10 62 5 98 11 90 16 -7 5 -26 9 -41 9 -18 0 -26 4
-21 11 3 6 -7 4 -24 -5 -17 -9 -52 -16 -79 -17 -82 -2 -84 -2 -77 25 5 20 2
23 -18 21 -13 -1 -15 0 -5 2 9 2 17 9 17 15 0 6 6 6 15 -2 8 -7 15 -19 15 -27
0 -10 8 -12 33 -8 17 3 39 7 47 9 26 4 58 29 53 41 -5 15 24 28 32 14 4 -5 3
-8 -2 -7 -4 2 -9 -1 -11 -7 -5 -17 31 -18 43 -1 6 8 24 20 38 25 24 9 26 13
17 36 -15 38 -12 47 10 40 20 -6 28 9 10 20 -17 10 -11 25 10 25 11 0 20 5 20
11 0 6 7 9 15 6 8 -4 17 -2 20 3 4 6 -22 10 -66 10 l-71 0 4 -35 c3 -24 0 -35
-9 -35 -15 0 -17 -16 -3 -25 6 -4 8 -11 4 -16 -4 -6 -13 -4 -24 6 -14 13 -29
15 -67 9 -26 -4 -58 -10 -69 -15 -14 -5 -29 -3 -41 6 -11 8 -23 12 -26 9 -3
-3 -4 2 -3 13 2 10 13 19 26 21 12 2 34 17 47 33 28 33 57 38 72 12 12 -21 24
-13 15 11 -5 12 -19 16 -58 16 -28 0 -73 7 -101 16 -27 9 -64 20 -82 25 -37
11 -153 10 -153 -2z m44 -44 c3 -8 12 -12 21 -9 8 3 15 1 15 -5 0 -6 -10 -11
-22 -11 -13 0 -40 -3 -60 -6 -32 -5 -38 -3 -38 11 0 11 5 15 15 11 8 -3 15 -1
15 4 0 7 15 14 41 19 4 0 9 -6 13 -14z m189 -17 c8 6 20 6 37 -1 23 -9 23 -10
5 -15 -11 -2 -25 -8 -31 -13 -8 -6 -14 -4 -18 6 -3 8 -12 15 -20 15 -10 0 -12
7 -8 22 l5 22 9 -23 c6 -17 12 -21 21 -13z m-311 -28 c-9 -11 -18 -20 -20 -20
-7 0 4 35 13 42 18 13 24 -3 7 -22z m-125 -16 c-3 -3 -12 -4 -19 -1 -8 3 -5 6
6 6 11 1 17 -2 13 -5z m-88 -156 c-7 -14 -7 -33 2 -68 9 -36 10 -55 1 -72 -9
-20 -11 -21 -11 -4 -1 11 -19 35 -42 54 -27 24 -38 40 -34 51 4 9 7 21 8 26 3
18 48 43 68 38 15 -4 17 -9 8 -25z m2471 -8 c-11 -20 -30 -28 -30 -12 0 11 22
32 32 32 5 0 4 -9 -2 -20z m-2780 -55 c0 -27 -9 -32 -27 -14 -9 9 -8 15 0 25
18 20 27 17 27 -11z m3260 -19 c0 -2 -7 -6 -15 -10 -8 -3 -15 -1 -15 4 0 6 7
10 15 10 8 0 15 -2 15 -4z m-60 -21 c0 -8 -9 -15 -20 -15 -20 0 -26 11 -13 23
12 13 33 7 33 -8z m-2937 -18 c30 -16 21 -45 -9 -32 -11 5 -23 9 -29 10 -14 1
-35 15 -35 23 0 13 48 12 73 -1z m2274 -35 c-14 -17 -16 -12 -10 23 5 25 7 27
13 10 4 -11 3 -26 -3 -33z m-2547 17 c0 -5 -7 -9 -15 -9 -15 0 -20 12 -9 23 8
8 24 -1 24 -14z m2580 -4 c0 -8 -2 -15 -4 -15 -2 0 -6 7 -10 15 -3 8 -1 15 4
15 6 0 10 -7 10 -15z m-2497 -35 c4 -17 13 -30 21 -30 8 0 19 -7 24 -16 7 -12
11 -13 17 -4 9 14 -3 27 -30 32 -14 3 -7 7 22 15 49 12 72 4 49 -20 -14 -13
-14 -16 -1 -21 9 -3 28 -3 43 0 30 6 58 -16 64 -51 2 -16 -4 -21 -40 -25 -47
-7 -82 -30 -45 -30 12 0 23 6 26 13 3 10 9 10 26 0 11 -7 26 -13 32 -13 6 0
23 -8 37 -19 15 -10 48 -21 75 -25 44 -7 58 -24 19 -25 -114 -3 -175 -1 -209
8 -44 12 -59 25 -65 56 -2 11 -11 19 -20 19 -10 -1 -16 3 -15 8 2 12 -7 17
-96 58 l-68 31 25 20 c13 10 34 19 45 19 11 0 26 9 33 19 15 25 24 20 31 -19z
m-323 14 c0 -8 -4 -12 -10 -9 -5 3 -10 10 -10 16 0 5 5 9 10 9 6 0 10 -7 10
-16z m200 12 c0 -2 -7 -7 -16 -10 -8 -3 -12 -2 -9 4 6 10 25 14 25 6z m1160
-6 c0 -5 -2 -10 -4 -10 -3 0 -8 5 -11 10 -3 6 -1 10 4 10 6 0 11 -4 11 -10z
m-620 -10 c0 -5 -2 -10 -4 -10 -3 0 -8 5 -11 10 -3 6 -1 10 4 10 6 0 11 -4 11
-10z m1730 0 c-20 -13 -33 -13 -25 0 3 6 14 10 23 10 15 0 15 -2 2 -10z
m-2310 -34 c0 -2 -7 -6 -15 -10 -8 -3 -15 -1 -15 4 0 6 7 10 15 10 8 0 15 -2
15 -4z m450 -6 c-8 -5 -22 -10 -30 -10 -13 0 -13 1 0 10 8 5 22 10 30 10 13 0
13 -1 0 -10z m550 0 c0 -5 -4 -10 -10 -10 -5 0 -10 5 -10 10 0 6 5 10 10 10 6
0 10 -4 10 -10z m-90 -10 c12 -8 11 -10 -7 -10 -13 0 -23 5 -23 10 0 13 11 13
30 0z m194 -13 c14 -8 22 -17 18 -21 -4 -4 0 -6 8 -4 8 2 18 7 21 11 7 10 59
-9 59 -23 0 -5 -10 -11 -22 -12 -13 0 -29 -2 -36 -2 -8 -1 -18 -9 -23 -18 -5
-10 -17 -14 -29 -11 -16 4 -18 9 -9 19 6 7 8 18 4 24 -8 13 -72 13 -80 0 -3
-5 -11 -10 -17 -10 -6 0 -5 6 3 16 11 13 9 14 -13 9 -15 -4 -29 -2 -32 4 -7
11 17 16 66 12 14 -1 29 3 33 8 8 14 17 14 49 -2z m2081 -2 c-11 -8 -24 -18
-30 -23 -16 -13 -103 -30 -116 -22 -13 8 -4 30 12 30 6 0 7 -4 4 -10 -11 -18
29 -10 80 15 55 27 81 32 50 10z m-442 -2 c-23 -9 -14 -23 15 -24 27 -2 27 -2
2 -7 l-25 -5 25 -8 25 -7 -27 -1 c-19 -1 -28 4 -28 14 0 16 -25 21 -34 6 -6
-10 -56 9 -56 21 0 3 18 5 40 4 22 -2 43 1 46 5 3 5 11 9 17 8 9 0 9 -2 0 -6z
m-2153 -7 c0 -2 -7 -7 -16 -10 -8 -3 -12 -2 -9 4 6 10 25 14 25 6z m2610 -16
c-19 -12 -30 -12 -30 -1 0 10 31 20 40 14 2 -2 -2 -8 -10 -13z m-1468 -14 c49
-1 58 -4 58 -20 0 -13 -5 -16 -17 -11 -20 7 -29 9 -90 20 -24 4 -43 11 -43 17
0 6 7 7 18 2 9 -4 43 -8 74 -8z m-752 -6 c0 -5 -5 -10 -11 -10 -5 0 -7 5 -4
10 3 6 8 10 11 10 2 0 4 -4 4 -10z m844 -5 c3 -9 0 -15 -8 -15 -7 0 -13 7 -13
15 0 8 4 15 8 15 4 0 9 -7 13 -15z m1521 -3 c-3 -3 -11 0 -18 7 -9 10 -8 11 6
5 10 -3 15 -9 12 -12z m-2275 -12 c0 -5 -7 -7 -15 -4 -8 4 -12 10 -9 15 6 11
24 2 24 -11z m-625 0 c3 -5 -1 -10 -10 -10 -9 0 -13 5 -10 10 3 6 8 10 10 10
2 0 7 -4 10 -10z m-276 -16 c1 -1 -7 -13 -19 -26 -14 -15 -19 -17 -15 -6 6 14
1 16 -32 14 -21 -2 -32 -2 -25 1 6 3 10 9 7 14 -4 5 1 6 9 3 9 -3 16 -1 16 5
0 10 46 6 59 -5z m-214 -24 c-18 -8 -18 -9 5 -10 14 -1 -4 -8 -40 -16 -73 -16
-116 -9 -79 14 12 8 18 9 15 3 -4 -5 -2 -12 4 -16 5 -3 10 -1 10 6 0 7 3 10 6
6 3 -3 20 1 37 8 18 8 39 14 47 14 10 0 8 -3 -5 -9z m105 0 c0 -5 -5 -10 -11
-10 -5 0 -7 5 -4 10 3 6 8 10 11 10 2 0 4 -4 4 -10z m2740 -10 c25 0 51 5 58
12 9 9 12 9 12 -1 0 -8 7 -10 23 -6 20 7 21 6 6 -9 -23 -24 -122 -32 -139 -11
-15 18 -37 20 -42 3 -3 -7 -10 -8 -17 -3 -10 6 -8 11 10 21 15 8 28 9 34 3 5
-5 30 -9 55 -9z m-250 6 c0 -9 -30 -14 -35 -6 -4 6 3 10 14 10 12 0 21 -2 21
-4z m40 -23 c0 -13 9 -15 55 -10 50 5 55 4 55 -14 0 -13 7 -19 23 -19 18 0 19
-2 7 -11 -11 -8 -9 -9 10 -4 27 8 27 8 55 6 18 -1 17 -4 -9 -28 -19 -19 -30
-24 -33 -15 -3 6 -11 12 -19 12 -11 0 -13 -4 -5 -17 7 -14 22 -18 62 -18 49 0
52 -2 53 -26 1 -21 -2 -25 -21 -21 -16 3 -23 0 -23 -12 0 -19 -40 -31 -75 -22
-24 6 -36 26 -15 26 6 0 10 7 10 15 0 10 -11 15 -35 15 -23 0 -35 -5 -35 -14
0 -31 -63 -58 -74 -31 -3 10 1 15 14 15 18 0 40 20 23 20 -100 5 -133 5 -133
-1 0 -4 -9 -5 -20 -2 -23 6 -25 14 -9 30 9 9 6 10 -11 6 -15 -4 -21 -2 -17 4
4 6 -4 13 -18 15 -14 3 -22 1 -18 -5 6 -11 -73 0 -97 14 -12 6 -10 8 8 9 13 0
20 4 17 10 -3 6 5 14 19 19 30 12 96 -4 113 -26 7 -9 21 -13 33 -10 11 3 20 1
20 -3 0 -12 36 -22 92 -25 33 -1 48 2 48 11 0 9 10 11 35 7 23 -4 35 -2 35 6
0 6 -10 11 -22 11 -30 0 -108 39 -108 54 0 9 -12 12 -35 10 -44 -3 -44 6 -2
26 36 18 47 16 47 -7z m-137 3 c4 -9 14 -13 29 -9 18 4 20 3 8 -6 -26 -19 -60
-13 -60 9 0 23 15 27 23 6z m534 6 c6 -4 17 -20 23 -36 l10 -28 -47 7 c-27 4
-49 8 -50 8 -1 1 1 14 4 30 5 27 33 36 60 19z m198 -24 c-3 -8 -22 -21 -41
-28 -32 -13 -33 -15 -15 -24 16 -9 17 -13 5 -23 -7 -7 -26 -13 -41 -14 -25 0
-26 -1 -8 -9 19 -8 19 -9 -4 -9 -16 -1 -21 -5 -17 -16 3 -8 2 -15 -3 -15 -20
0 -19 16 4 46 25 33 25 33 5 44 -17 9 -19 14 -10 26 7 7 16 11 21 8 10 -6 77
15 93 28 13 10 18 4 11 -14z m265 -34 c0 -17 -22 -14 -28 4 -2 7 3 12 12 12 9
0 16 -7 16 -16z m-1210 -19 c17 -9 30 -18 30 -21 0 -4 -59 23 -69 32 -10 9 13
3 39 -11z m1250 -2 c0 -10 -4 -14 -8 -8 -4 6 -11 13 -16 18 -5 4 -2 7 7 7 10
0 17 -8 17 -17z m-3617 0 c-7 -2 -19 -2 -25 0 -7 3 -2 5 12 5 14 0 19 -2 13
-5z m-213 -18 c0 -12 -19 -12 -23 0 -4 9 -1 12 9 8 7 -3 14 -7 14 -8z m3247
-51 c-3 -3 -12 -4 -19 -1 -8 3 -5 6 6 6 11 1 17 -2 13 -5z m-442 -46 c6 -6 3
-7 -9 -2 -13 5 -17 4 -13 -3 9 -14 -26 -23 -44 -12 -8 5 -17 3 -21 -4 -6 -9
-8 -9 -8 0 0 34 66 49 95 21z m-2057 0 c-3 -7 -12 -14 -22 -14 -13 -2 -13 -1
-1 3 8 2 13 9 10 14 -4 5 -1 9 5 9 7 0 10 -6 8 -12z m2141 3 c9 -6 10 -11 2
-15 -6 -4 -11 -3 -11 3 0 6 -14 9 -32 6 -29 -4 -30 -4 -8 4 33 12 33 12 49 2z
m-1656 -18 c-7 -2 -19 -2 -25 0 -7 3 -2 5 12 5 14 0 19 -2 13 -5z m912 -3 c3
-6 3 -10 -2 -11 -4 0 -17 -2 -27 -4 -22 -4 -39 3 -32 13 7 12 54 13 61 2z
m1231 -7 c-6 -17 -5 -17 8 0 10 13 19 15 35 9 l22 -8 -23 -10 c-48 -22 -88
-32 -94 -23 -3 5 -17 9 -32 10 l-27 1 30 9 c18 5 31 5 35 -1 3 -5 12 -1 20 10
18 25 34 26 26 3z m-1302 -24 c-3 -5 -10 -7 -15 -3 -5 3 -7 10 -3 15 3 5 10 7
15 3 5 -3 7 -10 3 -15z m66 -9 c0 -5 -9 -10 -20 -10 -11 0 -20 5 -20 10 0 6 9
10 20 10 11 0 20 -4 20 -10z m-1885 -18 c-3 -3 -16 -6 -30 -8 -19 -2 -22 0
-13 10 7 7 21 11 31 8 10 -2 15 -7 12 -10z m438 11 c-7 -2 -19 -2 -25 0 -7 3
-2 5 12 5 14 0 19 -2 13 -5z m507 -3 c0 -5 -4 -10 -9 -10 -6 0 -13 5 -16 10
-3 6 1 10 9 10 9 0 16 -4 16 -10z m1306 -5 c-11 -8 -29 -15 -40 -14 -17 0 -15
3 9 14 39 18 55 18 31 0z m-1927 -10 c17 2 29 0 26 -4 -7 -12 -74 -11 -81 0
-3 5 -10 6 -16 3 -7 -4 -8 -2 -4 4 5 8 13 9 25 3 10 -6 32 -8 50 -6z m2661 5
c13 -9 13 -10 0 -9 -8 1 -26 5 -40 9 l-25 8 25 1 c14 0 32 -4 40 -9z m-3320
-25 c0 -15 -21 -12 -30 5 -11 20 -10 21 9 10 12 -6 21 -13 21 -15z m1971 2
c-10 -9 -11 -8 -5 6 3 10 9 15 12 12 3 -3 0 -11 -7 -18z m367 1 c-2 -7 -7 -16
-13 -20 -5 -4 -6 -11 -1 -15 4 -4 13 0 20 9 10 13 15 15 24 6 26 -26 14 -41
-30 -35 -32 4 -48 1 -62 -11 -11 -10 -16 -11 -11 -3 4 8 2 16 -6 21 -17 11 6
41 26 34 7 -3 19 2 26 10 17 19 30 20 27 4z m-2303 -9 c11 -17 -1 -21 -15 -4
-8 9 -8 15 -2 15 6 0 14 -5 17 -11z m2543 -27 c4 -24 -9 -28 -41 -11 -29 15
-28 14 -22 32 9 23 59 7 63 -21z m-2498 18 c0 -5 -5 -10 -11 -10 -5 0 -7 5 -4
10 3 6 8 10 11 10 2 0 4 -4 4 -10z m3360 0 c0 -5 -5 -10 -11 -10 -5 0 -7 5 -4
10 3 6 8 10 11 10 2 0 4 -4 4 -10z m-3415 -11 c4 -6 0 -16 -9 -22 -14 -10 -12
-12 14 -13 24 -1 28 1 19 12 -9 11 -8 14 5 14 9 0 16 -8 16 -17 0 -13 3 -14 8
-5 6 8 19 10 41 6 40 -8 36 -12 -23 -23 -43 -8 -116 1 -116 15 0 9 25 44 32
44 4 0 10 -5 13 -11z m566 -7 c18 3 45 -1 60 -9 16 -8 33 -12 39 -8 5 3 10 1
10 -4 0 -6 11 -11 24 -11 13 0 29 -7 36 -15 7 -8 24 -15 39 -16 23 0 24 -1 6
-9 -18 -7 -73 -3 -85 7 -2 2 2 8 10 13 12 8 10 10 -8 10 -15 0 -21 -4 -16 -12
5 -7 2 -9 -7 -6 -8 3 -46 16 -86 29 -40 12 -75 29 -78 37 -4 12 -3 13 10 2 8
-7 29 -10 46 -8z m99 8 c0 -5 -7 -10 -16 -10 -8 0 -12 5 -9 10 3 6 10 10 16
10 5 0 9 -4 9 -10z m2717 4 c-3 -3 -12 -4 -19 -1 -8 3 -5 6 6 6 11 1 17 -2 13
-5z m258 -4 c-3 -5 -13 -10 -21 -10 -11 0 -13 -6 -9 -21 6 -17 3 -20 -17 -18
-12 2 -33 -1 -46 -5 -22 -7 -22 -9 -8 -25 12 -13 13 -20 4 -29 -8 -8 -1 -10
28 -7 29 3 34 2 19 -5 -11 -5 -31 -9 -45 -9 -15 -1 -31 -6 -36 -11 -7 -7 -11
-6 -11 5 0 8 6 15 14 15 7 0 13 5 13 10 0 16 -9 12 -35 -16 -14 -15 -25 -21
-25 -15 0 7 -5 9 -10 6 -6 -4 -8 -10 -5 -15 3 -4 -2 -13 -9 -20 -12 -9 -14 -6
-11 21 3 18 8 35 13 38 4 3 7 16 6 28 -1 23 32 40 39 19 3 -8 9 -7 18 3 9 9 9
11 2 7 -7 -4 -13 -3 -13 2 0 5 14 12 32 16 17 3 39 12 47 20 14 12 36 21 64
25 5 0 5 -3 2 -9z m-85 -14 c0 -2 -7 -7 -16 -10 -8 -3 -12 -2 -9 4 6 10 25 14
25 6z m-556 -35 c3 -5 0 -11 -8 -14 -8 -3 -17 1 -20 9 -6 15 19 20 28 5z m823
-11 c1 -11 -2 -22 -8 -25 -5 -4 -9 -1 -9 5 0 6 -5 8 -12 4 -10 -6 -10 -5 -1 8
7 8 10 18 6 21 -3 4 0 7 8 7 8 0 15 -9 16 -20z m61 -15 c2 -2 -8 -2 -22 -1
-14 0 -26 7 -26 14 0 10 5 10 23 1 12 -6 23 -13 25 -14z m-244 -5 c-16 -17
-25 -19 -45 -11 -24 10 -23 10 5 8 16 -1 31 4 34 11 2 6 9 12 15 12 6 0 2 -9
-9 -20z m-609 -10 c8 -13 -5 -13 -25 0 -13 8 -13 10 2 10 9 0 20 -4 23 -10z
m249 -54 c3 -23 21 -32 31 -17 3 6 11 11 17 11 7 0 7 -4 -1 -14 -9 -11 -5 -16
19 -26 21 -9 29 -18 25 -28 -4 -12 2 -14 32 -9 21 3 49 9 63 12 19 5 21 4 10
-4 -26 -18 -91 -24 -116 -10 -19 9 -30 10 -50 1 -18 -9 -23 -9 -18 -1 4 8 -7
10 -40 8 -25 -2 -46 -1 -46 2 0 10 -81 30 -130 31 -55 2 -182 -32 -234 -63
-27 -15 -37 -18 -33 -8 3 8 11 31 18 52 11 32 16 37 43 37 17 0 39 7 49 15 11
7 47 17 82 20 42 5 71 14 85 27 16 15 28 18 53 12 18 -4 37 -6 42 -5 6 2 22 4
38 6 15 1 31 5 34 9 8 7 21 -23 27 -58z m-2479 44 c3 -5 -1 -10 -9 -10 -8 0
-18 5 -21 10 -3 6 1 10 9 10 8 0 18 -4 21 -10z m521 -17 c-10 -10 -19 5 -10
18 6 11 8 11 12 0 2 -7 1 -15 -2 -18z m1334 -4 c0 -9 -152 -57 -212 -68 -38
-7 -50 -5 -60 7 -11 13 -9 14 12 7 25 -7 25 -7 5 10 -18 15 -18 16 -2 11 10
-3 25 -6 33 -6 9 0 13 -4 10 -9 -4 -5 7 -4 24 2 20 8 26 14 17 19 -7 5 1 6 18
2 17 -4 31 -8 33 -9 6 -5 77 25 75 32 -1 4 10 8 23 8 13 0 24 -3 24 -6z m1140
-19 c0 -5 -7 -10 -15 -10 -8 0 -15 5 -15 10 0 6 7 10 15 10 8 0 15 -4 15 -10z
m-127 -13 c4 -10 -4 -14 -25 -14 -28 0 -29 1 -12 14 10 7 21 13 25 13 4 0 9
-6 12 -13z m-2819 -20 c3 3 12 0 20 -6 8 -7 21 -9 27 -5 7 4 9 3 6 -3 -13 -20
-69 -24 -89 -7 -25 24 -23 35 6 24 13 -5 27 -6 30 -3z m736 -21 c21 -27 -3
-17 -30 11 -21 22 -22 25 -4 15 11 -6 26 -18 34 -26z m1993 17 c-7 -2 -21 -2
-30 0 -10 3 -4 5 12 5 17 0 24 -2 18 -5z m-463 -56 c0 -14 -20 -37 -32 -37
-15 0 -8 19 10 24 9 3 0 3 -20 0 -30 -4 -38 -2 -38 11 0 11 11 15 40 15 26 0
40 -4 40 -13z m148 -33 c2 -17 -3 -20 -35 -22 -20 -2 -41 -8 -45 -15 -5 -9
-10 -9 -20 1 -14 14 -32 16 -23 2 3 -6 -1 -7 -9 -4 -9 3 -13 10 -10 15 3 5 -1
9 -8 9 -7 1 -1 7 13 15 14 7 40 13 57 13 18 -1 35 2 39 6 13 13 38 1 41 -20z
m-193 -14 c4 -6 -1 -7 -11 -3 -13 5 -16 2 -11 -9 4 -12 1 -14 -14 -11 -15 4
-17 8 -8 19 13 16 35 18 44 4z m575 -16 c0 -2 -7 -4 -15 -4 -8 0 -15 4 -15 10
0 5 7 7 15 4 8 -4 15 -8 15 -10z m-1737 -28 c-4 -6 1 -4 11 4 16 12 19 12 27
-3 11 -19 44 -23 54 -7 3 6 1 10 -6 10 -7 0 -9 3 -6 6 4 4 12 2 20 -4 7 -6 24
-8 37 -5 16 4 21 3 16 -5 -4 -7 -2 -12 4 -12 6 0 8 -5 4 -12 -5 -8 -2 -9 9 -5
31 12 27 -11 -6 -32 l-32 -21 38 0 c20 0 37 4 37 9 0 5 7 11 14 14 10 4 13 1
10 -7 -3 -7 2 -16 11 -20 9 -3 13 -2 10 4 -3 6 1 10 10 10 17 0 14 -11 -12
-42 -15 -17 -70 -17 -82 0 -3 4 -23 7 -43 7 -21 -1 -38 3 -38 7 0 11 -68 10
-75 -2 -3 -5 -12 -7 -20 -3 -9 3 -15 -1 -15 -10 0 -13 -6 -13 -52 0 -29 8 -59
22 -66 31 -11 15 -13 15 -18 -6 -4 -12 -9 -22 -13 -22 -12 0 -71 61 -71 74 0
20 22 36 50 36 20 0 22 2 10 10 -12 8 -9 10 12 10 15 0 30 -4 33 -10 10 -15
85 -13 85 3 0 9 10 12 30 9 19 -3 27 -8 23 -16z m-445 1 c12 3 22 1 22 -4 0
-6 -12 -9 -27 -9 -16 1 -34 -3 -41 -8 -16 -12 -24 -3 -16 17 4 12 11 14 23 7
10 -5 27 -6 39 -3z m1792 3 c13 -9 13 -11 0 -20 -20 -13 -40 -13 -40 1 0 6 -9
9 -20 6 -20 -5 -26 3 -13 16 10 10 56 8 73 -3z m-1150 -10 c0 -5 -5 -10 -11
-10 -5 0 -7 5 -4 10 3 6 8 10 11 10 2 0 4 -4 4 -10z m1288 -34 c-7 -8 -17 -12
-22 -9 -4 3 -2 9 5 14 22 13 31 11 17 -5z m-1251 -2 c-3 -3 -12 -4 -19 -1 -8
3 -5 6 6 6 11 1 17 -2 13 -5z m63 -14 c13 -8 13 -10 -2 -10 -9 0 -20 5 -23 10
-8 13 5 13 25 0z m-760 -34 c0 -11 -19 -15 -25 -6 -3 5 1 10 9 10 9 0 16 -2
16 -4z m525 -26 c3 -5 1 -10 -4 -10 -6 0 -11 5 -11 10 0 6 2 10 4 10 3 0 8 -4
11 -10z m-35 -20 c0 -5 -2 -10 -4 -10 -3 0 -8 5 -11 10 -3 6 -1 10 4 10 6 0
11 -4 11 -10z m-90 -4 c0 -3 -4 -8 -10 -11 -5 -3 -10 -1 -10 4 0 6 5 11 10 11
6 0 10 -2 10 -4z"/>
<path d="M1715 2460 c-3 -5 -1 -10 4 -10 6 0 11 5 11 10 0 6 -2 10 -4 10 -3 0
-8 -4 -11 -10z"/>
<path d="M2530 2560 c0 -5 7 -10 15 -10 8 0 15 5 15 10 0 6 -7 10 -15 10 -8 0
-15 -4 -15 -10z"/>
<path d="M4025 2430 c-3 -5 -2 -10 4 -10 5 0 13 5 16 10 3 6 2 10 -4 10 -5 0
-13 -4 -16 -10z"/>
<path d="M4148 2373 c7 -3 16 -2 19 1 4 3 -2 6 -13 5 -11 0 -14 -3 -6 -6z"/>
<path d="M3817 2359 c7 -7 15 -10 18 -7 3 3 -2 9 -12 12 -14 6 -15 5 -6 -5z"/>
<path d="M4450 2421 c0 -6 4 -13 10 -16 6 -3 7 1 4 9 -7 18 -14 21 -14 7z"/>
<path d="M1705 2080 c3 -5 11 -10 16 -10 6 0 7 5 4 10 -3 6 -11 10 -16 10 -6
0 -7 -4 -4 -10z"/>
<path d="M4236 1951 c-4 -7 -5 -15 -2 -18 9 -9 19 4 14 18 -4 11 -6 11 -12 0z"/>
<path d="M4220 1850 c0 -5 5 -10 10 -10 6 0 10 5 10 10 0 6 -4 10 -10 10 -5 0
-10 -4 -10 -10z"/>
<path d="M2968 1763 c7 -3 16 -2 19 1 4 3 -2 6 -13 5 -11 0 -14 -3 -6 -6z"/>
<path d="M2943 1747 c1 -7 -5 -11 -14 -9 -9 1 -22 -5 -29 -13 -11 -13 -9 -15
11 -15 23 0 65 19 44 20 -5 0 -4 4 3 9 11 7 11 9 -2 14 -9 4 -15 1 -13 -6z"/>
<path d="M2857 1719 c7 -7 15 -10 18 -7 3 3 -2 9 -12 12 -14 6 -15 5 -6 -5z"/>
<path d="M3220 3046 c-40 -14 -70 -58 -70 -100 0 -29 0 -29 -21 -10 -12 10
-23 18 -25 17 -2 -2 -4 0 -4 5 0 4 6 7 13 7 18 0 31 25 19 37 -11 11 -52 2
-52 -12 0 -5 -8 -16 -17 -26 -17 -17 -19 -22 -22 -52 -1 -11 -15 -12 -66 -2
-5 1 2 5 16 9 23 5 25 9 17 31 -8 22 -10 23 -19 8 -12 -21 -45 -24 -52 -5 -3
9 -9 9 -26 -1 -12 -7 -21 -8 -21 -2 0 5 -4 10 -10 10 -5 0 -10 -23 -10 -51 0
-45 -2 -50 -15 -39 -16 14 -20 56 -6 62 15 5 18 43 3 40 -8 -1 -11 2 -7 8 3 5
-5 15 -19 22 -22 9 -29 8 -47 -8 l-21 -19 26 -21 c28 -25 23 -33 -29 -52 -29
-10 -29 -11 -7 -18 28 -8 23 -30 -6 -27 -11 1 -25 -4 -31 -11 -10 -12 -2 -14
48 -13 33 1 54 5 48 9 -8 5 -6 8 5 8 9 0 30 -14 47 -32 26 -28 36 -32 80 -31
28 0 51 -1 51 -3 0 -2 -8 -13 -17 -24 -20 -23 -73 -28 -73 -6 0 7 -7 19 -16
27 -13 11 -14 9 -9 -13 5 -18 2 -27 -10 -32 -9 -3 -21 -4 -26 0 -10 6 -11 4
-15 -43 -1 -18 2 -33 7 -33 6 0 9 -6 7 -12 -3 -18 40 -98 56 -104 7 -3 51 4
97 15 46 11 98 22 114 24 30 4 30 4 3 6 -23 1 -28 6 -28 26 0 14 -4 25 -9 25
-5 0 -11 9 -14 19 -8 31 31 41 78 20 22 -10 49 -18 60 -18 l20 0 -20 15 c-11
9 -37 23 -58 31 -49 20 -43 39 13 35 32 -3 41 -1 35 10 -3 7 0 5 8 -4 15 -19
57 -25 57 -8 0 6 -4 10 -10 10 -5 0 -10 9 -10 20 0 21 -19 27 -36 10 -7 -7
-24 -4 -55 9 -24 11 -36 20 -26 20 10 1 16 5 13 10 -4 5 3 7 14 4 11 -3 20 -9
20 -13 0 -4 18 -10 40 -12 22 -2 40 0 40 4 0 5 7 8 15 8 8 0 15 -4 15 -10 0
-5 -7 -10 -15 -10 -8 0 -15 -4 -15 -9 0 -8 20 -8 60 -2 3 1 -2 5 -10 11 -18
11 -13 15 25 24 22 5 26 4 15 -4 -14 -9 -7 -14 13 -11 42 7 96 8 92 2 -2 -5
22 -8 55 -7 33 0 60 -2 60 -6 0 -5 15 -8 33 -9 17 0 26 -3 20 -6 -17 -6 -17
-33 0 -33 7 0 22 6 32 14 19 14 19 15 -7 39 -32 30 -102 45 -123 27 -12 -10
-15 -9 -15 3 0 20 -21 27 -85 27 -50 0 -76 12 -61 28 4 3 25 6 46 5 46 -2 51
8 15 27 -14 7 -25 20 -25 28 0 7 -6 12 -12 9 -7 -2 -12 -12 -12 -21 1 -9 -2
-16 -7 -16 -5 0 -9 9 -9 21 0 13 -5 19 -12 16 -13 -4 -14 1 -21 73 -3 29 -8
35 -28 37 -13 1 -40 -4 -59 -11z m-254 -187 c4 -7 24 -9 53 -6 39 5 49 2 59
-13 9 -15 8 -19 -6 -25 -14 -5 -14 -7 -2 -15 13 -8 12 -10 -2 -10 -10 0 -18 6
-18 14 0 19 -36 26 -71 14 -22 -8 -34 -7 -42 1 -9 9 -6 13 12 18 23 6 23 7 6
20 -11 7 -14 13 -8 13 7 0 15 -5 19 -11z m64 -74 c-7 -8 -9 -15 -5 -15 4 0 2
-7 -5 -15 -7 -8 -9 -15 -4 -15 4 0 -1 -7 -12 -15 -20 -15 -15 -18 29 -15 35 2
34 -6 -3 -25 -43 -22 -55 -19 -54 15 2 44 2 43 29 73 27 28 47 38 25 12z"/>
<path d="M3608 3033 c7 -3 16 -2 19 1 4 3 -2 6 -13 5 -11 0 -14 -3 -6 -6z"/>
<path d="M3644 3011 c0 -14 5 -17 25 -12 36 10 39 31 4 31 -21 0 -29 -5 -29
-19z"/>
<path d="M3385 3000 c27 -12 35 -12 35 0 0 6 -12 10 -27 9 -25 0 -26 -1 -8 -9z"/>
<path d="M3445 3000 c3 -5 13 -10 21 -10 8 0 12 5 9 10 -3 6 -13 10 -21 10 -8
0 -12 -4 -9 -10z"/>
<path d="M3796 2994 c-3 -8 -2 -12 3 -9 16 9 24 -15 11 -30 -9 -11 -9 -15 -1
-15 6 0 11 5 11 10 0 6 7 10 15 10 18 0 10 22 -14 37 -16 10 -20 9 -25 -3z"/>
<path d="M3850 3006 c0 -10 28 -13 41 -5 10 6 7 9 -13 9 -16 0 -28 -2 -28 -4z"/>
<path d="M2586 2992 c-9 -14 9 -31 23 -23 7 5 10 14 7 20 -8 13 -23 14 -30 3z"/>
<path d="M3686 2966 c-37 -35 -50 -86 -22 -86 7 0 27 -3 45 -6 l31 -6 -25 46
c-19 35 -21 46 -10 46 23 0 65 22 59 31 -11 18 -43 8 -78 -25z"/>
<path d="M3505 2966 c-11 -8 -26 -12 -35 -9 -12 4 -12 3 -2 -5 8 -5 12 -17 10
-28 -2 -11 4 -20 14 -22 12 -2 20 7 27 34 12 45 11 48 -14 30z"/>
<path d="M3635 2960 c3 -5 8 -10 11 -10 2 0 4 5 4 10 0 6 -5 10 -11 10 -5 0
-7 -4 -4 -10z"/>
<path d="M3860 2956 c0 -18 19 -31 28 -21 4 4 1 10 -6 12 -6 3 -10 9 -6 14 3
5 0 9 -5 9 -6 0 -11 -6 -11 -14z"/>
<path d="M3966 2962 c-3 -3 -6 -16 -6 -29 0 -21 3 -22 20 -13 11 6 32 7 46 4
19 -5 25 -4 20 5 -4 6 -16 11 -27 11 -11 0 -18 4 -15 9 6 10 -30 22 -38 13z"/>
<path d="M4096 2961 c-7 -13 32 -36 67 -39 28 -3 37 0 37 12 0 9 -10 18 -22
20 -52 11 -79 13 -82 7z"/>
<path d="M3740 2935 c0 -9 6 -12 15 -9 8 4 12 10 9 15 -8 14 -24 10 -24 -6z"/>
<path d="M3780 2890 c-9 -16 -8 -20 5 -20 8 0 15 9 15 20 0 11 -2 20 -5 20 -2
0 -9 -9 -15 -20z"/>
<path d="M3850 2890 c0 -5 5 -10 10 -10 6 0 10 5 10 10 0 6 -4 10 -10 10 -5 0
-10 -4 -10 -10z"/>
<path d="M4030 2884 c0 -9 5 -14 12 -12 18 6 21 28 4 28 -9 0 -16 -7 -16 -16z"/>
<path d="M1510 2880 c-23 -7 -23 -8 -3 -9 12 -1 25 -5 28 -11 3 -5 12 -10 18
-10 7 0 3 7 -7 15 -26 19 -13 19 24 0 33 -17 40 -10 13 11 -20 15 -36 16 -73
4z"/>
<path d="M3556 2881 c-7 -10 22 -37 30 -28 4 3 -1 13 -9 22 -9 8 -18 11 -21 6z"/>
<path d="M4350 2869 c0 -5 5 -7 10 -4 6 3 10 8 10 11 0 2 -4 4 -10 4 -5 0 -10
-5 -10 -11z"/>
<path d="M2610 2789 c0 -5 10 -9 22 -9 12 0 18 3 14 7 -10 11 -36 12 -36 2z"/>
<path d="M1156 2769 c-14 -14 -16 -19 -5 -19 22 0 39 14 31 26 -5 7 -14 5 -26
-7z"/>
<path d="M2754 2778 c-4 -5 0 -14 7 -19 20 -13 29 -11 29 5 0 18 -27 29 -36
14z"/>
<path d="M2826 2783 c5 -5 12 -12 15 -16 3 -5 9 -2 12 7 5 12 0 16 -15 16 -12
0 -17 -3 -12 -7z"/>
<path d="M3314 2758 c-3 -4 -10 -5 -16 -2 -6 4 -9 1 -6 -7 2 -7 19 -14 37 -15
35 -2 57 -22 41 -38 -7 -7 -25 -6 -50 1 -52 13 -61 -1 -16 -22 33 -16 37 -16
52 -1 8 9 19 14 24 11 4 -3 10 3 12 13 4 16 14 18 56 16 28 -2 54 0 57 5 8 14
-25 21 -78 16 -27 -3 -46 -1 -43 4 6 10 -18 23 -47 26 -10 1 -20 -2 -23 -7z"/>
<path d="M1080 2736 c0 -2 9 -6 20 -9 11 -3 20 -1 20 4 0 5 -9 9 -20 9 -11 0
-20 -2 -20 -4z"/>
<path d="M3425 2690 c-30 -8 -30 -8 8 -9 20 0 37 4 37 9 0 11 -2 11 -45 0z"/>
<path d="M1075 2680 c-8 -13 5 -13 25 0 13 8 13 10 -2 10 -9 0 -20 -4 -23 -10z"/>
<path d="M4950 2666 c0 -2 8 -10 18 -17 15 -13 16 -12 3 4 -13 16 -21 21 -21
13z"/>
<path d="M3194 2599 c-19 -22 -19 -22 4 -8 12 8 22 17 22 21 0 12 -6 9 -26
-13z"/>
<path d="M1020 2581 c0 -16 27 -31 44 -25 15 6 15 8 -1 20 -21 15 -43 18 -43
5z"/>
<path d="M5100 2545 c-11 -13 -8 -15 20 -15 21 0 30 4 28 13 -7 18 -33 20 -48
2z"/>
<path d="M2168 2523 c7 -3 16 -2 19 1 4 3 -2 6 -13 5 -11 0 -14 -3 -6 -6z"/>
<path d="M5166 2511 c-4 -5 0 -12 6 -15 10 -5 10 -7 1 -12 -7 -3 -13 -10 -13
-15 0 -12 47 -12 55 1 3 6 2 10 -3 10 -5 0 -12 9 -15 20 -5 21 -22 27 -31 11z"/>
<path d="M962 2493 c5 -24 25 -27 31 -3 4 15 0 20 -15 20 -13 0 -18 -6 -16
-17z"/>
<path d="M920 2470 c0 -5 5 -10 11 -10 5 0 7 5 4 10 -3 6 -8 10 -11 10 -2 0
-4 -4 -4 -10z"/>
<path d="M5235 2449 c-4 -6 1 -16 10 -23 17 -12 17 -13 -1 -20 -15 -7 -11 -11
26 -22 24 -7 46 -12 48 -10 1 2 -7 22 -19 45 -21 40 -50 54 -64 30z"/>
<path d="M850 2410 c0 -5 5 -10 11 -10 5 0 7 5 4 10 -3 6 -8 10 -11 10 -2 0
-4 -4 -4 -10z"/>
<path d="M1026 2405 c-4 -10 2 -19 17 -24 26 -10 48 4 40 25 -7 19 -49 18 -57
-1z"/>
<path d="M2360 2406 c-14 -8 -35 -20 -48 -26 -13 -5 -20 -14 -17 -20 6 -10 85
-11 85 -1 0 3 21 7 47 9 26 2 52 7 58 12 13 11 55 2 55 -11 0 -5 -7 -9 -17 -9
-9 0 -14 -3 -10 -6 3 -4 19 -2 35 4 17 6 34 7 38 2 12 -10 76 -31 81 -26 2 2
-30 20 -71 41 -89 44 -192 58 -236 31z"/>
<path d="M880 2399 c0 -5 5 -7 10 -4 6 3 10 8 10 11 0 2 -4 4 -10 4 -5 0 -10
-5 -10 -11z"/>
<path d="M5379 2399 c-18 -11 -4 -25 35 -35 26 -6 27 -5 17 13 -13 25 -33 34
-52 22z"/>
<path d="M900 2379 c0 -5 9 -9 20 -9 11 0 20 2 20 4 0 2 -9 6 -20 9 -11 3 -20
1 -20 -4z"/>
<path d="M770 2360 c0 -5 5 -10 10 -10 6 0 10 5 10 10 0 6 -4 10 -10 10 -5 0
-10 -4 -10 -10z"/>
<path d="M2480 2340 c-13 -8 -12 -10 3 -10 9 0 17 5 17 10 0 12 -1 12 -20 0z"/>
<path d="M1947 2323 c-12 -11 -8 -23 8 -23 8 0 15 7 15 15 0 16 -12 20 -23 8z"/>
<path d="M1478 2308 c6 -6 18 -8 28 -6 14 3 12 5 -9 10 -19 3 -25 2 -19 -4z"/>
<path d="M2046 2305 c-3 -8 -1 -15 3 -15 5 0 11 7 15 15 3 8 1 15 -3 15 -5 0
-11 -7 -15 -15z"/>
<path d="M3160 2240 c-9 -6 -10 -10 -3 -10 6 0 15 5 18 10 8 12 4 12 -15 0z"/>
<path d="M5412 2213 c-16 -6 3 -33 24 -33 20 0 28 21 13 31 -15 10 -18 10 -37
2z"/>
<path d="M820 2180 c-9 -6 -10 -10 -3 -10 6 0 15 5 18 10 8 12 4 12 -15 0z"/>
<path d="M764 2149 c-3 -6 1 -18 9 -27 14 -14 19 -14 49 1 34 16 32 19 -24 31
-15 4 -30 1 -34 -5z"/>
<path d="M4155 2150 c-16 -7 -17 -9 -3 -9 9 -1 20 4 23 9 7 11 7 11 -20 0z"/>
<path d="M4198 2143 c-10 -2 -18 -9 -18 -14 0 -6 6 -7 16 -1 9 5 25 7 35 5 11
-3 19 0 19 6 0 11 -20 13 -52 4z"/>
<path d="M5351 2121 c-11 -7 -9 -11 9 -21 24 -13 48 0 36 19 -9 13 -26 14 -45
2z"/>
<path d="M860 2110 c0 -5 5 -10 11 -10 5 0 7 5 4 10 -3 6 -8 10 -11 10 -2 0
-4 -4 -4 -10z"/>
<path d="M4170 2095 c0 -9 6 -12 15 -9 8 4 12 10 9 15 -8 14 -24 10 -24 -6z"/>
<path d="M5246 2101 c-4 -7 -5 -15 -2 -18 9 -9 19 4 14 18 -4 11 -6 11 -12 0z"/>
<path d="M600 2085 c8 -10 10 -16 3 -12 -15 9 -63 -2 -63 -15 0 -5 5 -6 10 -3
6 3 10 1 10 -4 0 -6 -18 -10 -43 -9 -45 3 -103 -24 -92 -43 4 -5 1 -8 -7 -7
-10 2 -14 -17 -15 -76 -2 -72 0 -83 23 -113 14 -18 30 -30 38 -27 9 4 18 -7
27 -33 7 -21 12 -41 11 -45 -1 -5 2 -8 7 -8 5 0 12 -8 15 -18 4 -13 16 -18 39
-18 25 1 31 -3 29 -17 -6 -35 17 -16 24 21 4 20 9 31 11 25 4 -10 12 -9 34 3
27 14 28 16 13 31 -13 13 -20 14 -35 5 -15 -10 -24 -9 -44 4 -25 17 -26 17 -6
35 23 22 18 56 -10 64 -21 7 -25 20 -9 30 6 4 8 10 5 15 -3 5 -1 11 5 15 16
10 11 35 -7 35 -14 0 -14 3 -5 12 10 10 15 10 20 1 8 -13 76 -10 113 5 15 6
30 8 33 5 3 -4 6 -2 6 4 0 6 6 11 13 10 36 -1 57 4 52 13 -11 18 17 11 31 -7
7 -10 15 -15 18 -12 10 9 -27 69 -42 69 -7 0 -26 7 -41 15 -28 14 -29 14 -24
-8 3 -12 11 -28 16 -35 9 -11 4 -13 -23 -11 -29 3 -37 9 -48 38 -10 28 -10 36
0 43 7 4 -4 5 -24 1 -25 -3 -38 -2 -38 5 0 6 -10 17 -22 23 -22 12 -22 11 -8
-6z"/>
<path d="M734 2085 c24 -18 49 -20 44 -2 -3 6 -18 13 -34 15 -28 2 -28 2 -10
-13z"/>
<path d="M5284 2072 c-6 -4 -13 -15 -17 -25 -4 -10 -11 -16 -16 -13 -5 3 -7
-3 -4 -14 3 -11 9 -20 14 -20 12 0 31 39 24 50 -3 6 5 10 20 10 15 0 24 4 20
10 -7 12 -26 13 -41 2z"/>
<path d="M2515 2050 c-3 -5 1 -10 9 -10 8 0 18 5 21 10 3 6 -1 10 -9 10 -8 0
-18 -4 -21 -10z"/>
<path d="M3010 2042 c0 -6 9 -12 20 -15 11 -3 20 -3 20 -1 0 2 -9 8 -20 14
-11 6 -20 7 -20 2z"/>
<path d="M3228 2043 c7 -3 16 -2 19 1 4 3 -2 6 -13 5 -11 0 -14 -3 -6 -6z"/>
<path d="M3098 2028 c6 -6 18 -8 28 -6 14 3 12 5 -9 10 -19 3 -25 2 -19 -4z"/>
<path d="M5210 2025 c-6 -8 -9 -19 -5 -25 11 -18 23 -11 21 15 -1 29 0 29 -16
10z"/>
<path d="M1190 2020 c0 -5 7 -10 16 -10 8 0 12 5 9 10 -3 6 -10 10 -16 10 -5
0 -9 -4 -9 -10z"/>
<path d="M2736 1997 c3 -10 9 -15 12 -12 3 3 0 11 -7 18 -10 9 -11 8 -5 -6z"/>
<path d="M5085 2000 c-4 -6 3 -10 14 -10 25 0 27 6 6 13 -8 4 -17 2 -20 -3z"/>
<path d="M864 1984 c9 -8 20 -12 26 -9 15 9 2 25 -21 25 -19 0 -19 -1 -5 -16z"/>
<path d="M917 1993 c-3 -5 -4 -38 -3 -75 1 -38 -2 -68 -6 -68 -4 0 -8 6 -8 13
0 8 -3 8 -9 -2 -8 -12 -12 -12 -25 -2 -8 7 -23 11 -32 9 -16 -3 -16 -4 1 -21
12 -13 30 -17 56 -16 28 2 44 -3 62 -19 30 -29 32 -53 3 -42 -12 4 -20 14 -20
23 1 9 -5 13 -18 9 -24 -6 -19 -36 7 -40 11 -2 34 -10 52 -18 39 -18 52 -18
28 0 -18 13 -17 14 13 21 23 5 40 2 56 -8 20 -14 27 -14 51 -1 30 16 69 19 61
5 -3 -5 1 -14 9 -21 10 -8 15 -9 15 -2 0 6 11 0 25 -13 13 -14 28 -25 33 -25
11 0 11 32 0 40 -17 13 11 32 36 26 21 -5 26 -11 21 -25 -3 -11 1 -25 9 -34
33 -32 -34 -51 -78 -21 -30 19 -42 3 -16 -21 11 -10 20 -29 20 -43 0 -23 2
-24 50 -20 52 5 89 -9 76 -30 -7 -12 38 -17 106 -12 14 1 39 -5 55 -13 30 -16
128 -26 139 -14 4 4 12 7 18 7 6 0 4 -5 -4 -11 -12 -8 -12 -10 5 -8 37 3 44
-1 38 -17 -5 -14 11 -33 29 -34 3 0 9 13 13 30 5 24 14 32 48 41 23 6 53 16
67 22 25 11 25 11 -9 15 -34 3 -70 -9 -103 -36 -14 -12 -23 -12 -55 -1 -42 14
-62 20 -80 21 -7 1 -10 5 -7 9 2 4 -4 9 -13 12 -10 2 -2 4 18 3 21 -1 35 -4
33 -7 -3 -6 19 -19 33 -19 3 0 3 9 0 20 -3 11 -1 20 4 20 6 0 6 7 1 18 -18 36
-9 46 40 47 32 0 48 -4 48 -12 0 -7 -3 -12 -7 -11 -16 4 -73 -12 -73 -21 0
-15 32 -22 46 -10 10 8 14 8 14 0 0 -13 39 -14 60 -1 9 6 19 5 29 -3 19 -16
44 -15 58 3 9 12 8 19 -4 33 -9 9 -11 17 -5 17 6 0 5 11 -5 30 -8 17 -19 28
-24 24 -5 -3 -8 0 -7 8 2 8 -5 12 -19 10 -12 -2 -35 4 -51 12 -41 21 -111 36
-118 25 -3 -5 -13 -5 -24 1 -10 5 -46 10 -79 10 -46 0 -66 -5 -80 -19 -12 -12
-24 -16 -32 -10 -7 4 -17 5 -21 3 -4 -3 -8 0 -8 6 0 17 -42 1 -61 -22 -14 -18
-18 -19 -37 -7 -30 19 -22 33 21 37 30 3 42 11 71 53 41 55 42 62 21 83 -18
18 -60 7 -60 -15 0 -10 -16 -13 -65 -12 -36 1 -77 2 -92 2 -15 1 -30 5 -33 11
-4 6 -10 8 -15 5 -5 -3 -12 -1 -15 5 -4 7 17 9 67 6 40 -2 81 -1 91 3 17 6 17
8 3 20 -33 28 -104 40 -208 35 -57 -2 -117 -6 -134 -9 -24 -4 -39 1 -62 20
-17 14 -33 22 -35 18z m563 -112 c0 -16 -25 -30 -39 -22 -9 6 -10 11 -2 15 6
4 11 2 11 -4 0 -6 5 -8 10 -5 6 4 8 11 5 16 -4 5 -1 9 4 9 6 0 11 -4 11 -9z
m-202 -25 c-7 -8 -15 -12 -17 -11 -5 6 10 25 20 25 5 0 4 -6 -3 -14z m-168
-17 c0 -14 -17 -10 -23 5 -4 10 -1 13 9 9 7 -3 14 -9 14 -14z m302 6 c18 6 20
5 11 -5 -6 -7 -45 -14 -90 -16 -64 -3 -73 -2 -48 7 17 6 38 11 47 11 10 -1 20
4 24 9 4 6 11 6 19 -1 8 -7 24 -9 37 -5z m-157 -75 c3 -5 1 -10 -4 -10 -6 0
-11 5 -11 10 0 6 2 10 4 10 3 0 8 -4 11 -10z m400 -56 c-18 -19 -24 -18 -22 5
1 12 7 17 19 13 15 -3 15 -6 3 -18z m39 -90 c3 -8 2 -12 -4 -9 -6 3 -10 10
-10 16 0 14 7 11 14 -7z m-234 -28 c0 -3 -4 -8 -10 -11 -5 -3 -10 -1 -10 4 0
6 5 11 10 11 6 0 10 -2 10 -4z"/>
<path d="M1050 1980 c0 -5 7 -10 15 -10 8 0 15 5 15 10 0 6 -7 10 -15 10 -8 0
-15 -4 -15 -10z"/>
<path d="M2945 1971 c-3 -6 -10 -9 -14 -7 -14 9 -30 -9 -21 -24 8 -13 13 -12
32 7 12 12 19 25 16 28 -3 4 -9 1 -13 -4z"/>
<path d="M3000 1951 c0 -6 5 -13 10 -16 6 -3 10 1 10 9 0 9 -4 16 -10 16 -5 0
-10 -4 -10 -9z"/>
<path d="M1665 1940 c-3 -5 1 -10 10 -10 9 0 13 5 10 10 -3 6 -8 10 -10 10 -2
0 -7 -4 -10 -10z"/>
<path d="M718 1919 c-20 -11 -22 -27 -9 -48 7 -11 15 -11 44 -2 l35 12 -23 24
c-25 28 -24 28 -47 14z"/>
<path d="M822 1903 c-1 -18 2 -24 15 -21 23 4 26 21 5 34 -15 10 -18 8 -20
-13z"/>
<path d="M2860 1921 c-14 -4 -20 -10 -15 -13 6 -3 21 0 35 8 27 14 20 16 -20
5z"/>
<path d="M5335 1920 c-12 -4 -27 -16 -35 -26 -14 -16 -13 -17 5 -10 39 16 55
18 72 11 10 -5 24 -9 30 -11 7 -1 19 -9 28 -17 24 -25 56 -31 72 -14 9 9 13
22 10 31 -8 20 -59 34 -65 18 -6 -18 -31 -14 -59 8 -28 22 -29 22 -58 10z"/>
<path d="M3234 1885 c22 -17 40 -20 32 -6 -3 5 -16 11 -28 14 -22 6 -22 5 -4
-8z"/>
<path d="M4958 1873 c7 -3 16 -2 19 1 4 3 -2 6 -13 5 -11 0 -14 -3 -6 -6z"/>
<path d="M3348 1863 c7 -3 16 -2 19 1 4 3 -2 6 -13 5 -11 0 -14 -3 -6 -6z"/>
<path d="M5360 1856 c0 -9 -12 -16 -27 -18 -18 -2 -29 -10 -31 -22 -3 -14 0
-17 11 -13 9 3 17 1 19 -4 5 -15 51 8 67 33 11 17 10 22 -1 29 -20 13 -38 11
-38 -5z"/>
<path d="M1830 1845 c0 -9 5 -15 11 -13 6 2 11 8 11 13 0 5 -5 11 -11 13 -6 2
-11 -4 -11 -13z"/>
<path d="M2356 1853 c-3 -3 -3 -10 0 -14 7 -12 44 -12 44 0 0 10 -36 21 -44
14z"/>
<path d="M4815 1849 c-11 -17 1 -21 15 -4 8 9 8 15 2 15 -6 0 -14 -5 -17 -11z"/>
<path d="M4850 1847 c-8 -7 -20 -31 -26 -54 -10 -37 -9 -41 5 -34 20 11 60 -2
43 -13 -7 -4 -10 -12 -7 -17 4 -5 1 -9 -4 -9 -6 0 -11 7 -11 15 0 17 -16 20
-25 4 -4 -5 1 -19 10 -29 16 -18 16 -19 -14 -18 -17 1 -31 6 -31 13 0 7 -9 20
-20 30 -17 15 -24 16 -49 5 -40 -16 -46 -36 -13 -46 15 -4 31 -6 36 -5 5 1 6
-5 3 -12 -3 -8 0 -20 6 -26 8 -8 7 -11 -5 -11 -9 0 -25 -13 -34 -30 -18 -29
-44 -48 -44 -30 0 5 -8 11 -17 13 -16 4 -16 5 -1 6 14 1 16 8 11 39 -3 20 -7
38 -8 39 -3 5 -55 -22 -55 -29 0 -3 -18 -9 -40 -13 -46 -8 -48 -10 -55 -60 -5
-46 -11 -53 -19 -27 -8 25 -54 42 -112 42 -25 0 -57 8 -78 21 -35 20 -76 19
-76 -2 0 -5 11 -22 25 -37 14 -15 21 -28 15 -30 -18 -6 36 -41 71 -46 67 -9
145 -29 187 -47 32 -15 47 -17 62 -9 17 9 25 6 45 -16 24 -26 27 -26 66 -15
22 7 48 9 59 6 10 -3 21 -1 25 5 3 5 17 10 31 10 17 0 27 -8 34 -26 6 -14 8
-30 5 -35 -9 -13 8 -38 66 -99 29 -30 47 -45 40 -32 -7 12 -9 27 -6 32 3 6 -1
10 -9 10 -9 0 -16 6 -16 13 0 18 -31 80 -43 88 -6 4 -7 14 -4 22 3 9 1 17 -6
20 -9 3 -9 10 1 31 11 25 15 26 29 15 14 -12 16 -12 8 1 -8 13 -7 13 8 1 24
-19 33 -6 17 23 -8 15 -10 35 -5 53 6 27 7 27 20 9 8 -10 12 -22 10 -27 -3 -4
-1 -10 5 -14 5 -3 10 1 10 10 0 11 5 15 15 11 8 -3 15 -1 15 4 0 6 -6 10 -14
10 -8 0 -13 9 -12 23 1 20 6 22 53 23 29 0 53 -2 53 -6 0 -13 39 -18 48 -6 17
21 9 47 -18 61 -29 15 -45 41 -31 50 5 3 26 -12 47 -33 27 -27 39 -33 42 -23
3 9 -9 27 -28 42 -21 18 -30 32 -25 41 6 10 5 11 -6 1 -18 -18 -27 -16 -39 7
-10 19 -9 20 13 15 34 -9 41 16 14 46 -23 25 -87 39 -87 20 0 -6 9 -11 19 -11
11 0 22 -4 26 -9 10 -17 -11 -20 -39 -6 -18 10 -42 13 -66 9 -23 -4 -40 -2
-44 5 -4 6 -21 11 -38 11 -30 0 -31 0 -13 20 21 23 17 34 -5 17z m95 -147 c-3
-5 -12 -10 -20 -10 -8 0 -17 5 -20 10 -4 6 5 10 20 10 15 0 24 -4 20 -10z
m-145 -45 c0 -8 -4 -15 -10 -15 -5 0 -7 7 -4 15 4 8 8 15 10 15 2 0 4 -7 4
-15z m53 -5 c3 -11 0 -23 -5 -27 -7 -3 -8 -1 -4 5 4 7 2 12 -4 12 -6 0 -9 4
-6 9 4 5 0 12 -6 14 -8 4 -7 6 3 6 9 1 19 -8 22 -19z m21 -84 l26 -13 -32 -6
c-18 -3 -42 -9 -53 -13 -18 -6 -17 -4 4 19 29 32 23 30 55 13z"/>
<path d="M735 1840 c3 -5 13 -10 21 -10 8 0 12 5 9 10 -3 6 -13 10 -21 10 -8
0 -12 -4 -9 -10z"/>
<path d="M1996 1838 c4 -6 0 -15 -7 -20 -11 -8 -10 -8 4 -4 10 3 25 6 33 6 21
0 9 16 -16 23 -12 3 -18 1 -14 -5z"/>
<path d="M3270 1846 c0 -9 30 -14 35 -6 4 6 -3 10 -14 10 -12 0 -21 -2 -21 -4z"/>
<path d="M2325 1810 c3 -5 -7 -17 -22 -27 -28 -18 -62 -53 -63 -64 0 -3 19
-14 43 -25 23 -10 45 -23 48 -28 4 -5 30 -10 58 -10 28 -1 45 1 38 6 -6 4 -22
8 -35 8 -13 0 -20 4 -17 10 3 6 -2 10 -12 10 -22 0 -66 29 -45 30 7 0 11 4 8
9 -3 5 1 11 9 15 8 3 15 1 15 -4 0 -5 10 -14 21 -21 20 -10 21 -9 16 10 -3 12
0 21 6 22 7 0 -6 9 -28 20 -22 11 -32 17 -22 15 10 -3 17 0 17 8 0 8 -9 16
-20 19 -11 3 -18 1 -15 -3z m-15 -45 c-6 -8 -9 -19 -5 -25 9 -15 -24 -25 -38
-11 -8 8 -7 11 7 11 9 0 15 4 11 9 -3 6 3 14 12 20 25 14 27 13 13 -4z"/>
<path d="M3555 1810 c-4 -6 5 -10 20 -10 15 0 24 4 20 10 -3 6 -12 10 -20 10
-8 0 -17 -4 -20 -10z"/>
<path d="M4587 1744 c3 -7 9 -14 14 -14 14 0 10 17 -5 23 -10 4 -13 1 -9 -9z"/>
<path d="M2409 1733 c-13 -17 -13 -17 6 -3 11 8 22 16 24 17 2 2 0 3 -6 3 -6
0 -17 -8 -24 -17z"/>
<path d="M5285 1720 c-4 -6 -4 -10 -1 -10 2 0 11 -3 20 -6 9 -3 16 -2 16 4 0
14 -28 23 -35 12z"/>
<path d="M1041 1696 c-21 -38 6 -58 52 -40 13 5 13 9 -1 35 -21 35 -35 37 -51
5z"/>
<path d="M4550 1711 c0 -6 4 -13 10 -16 6 -3 7 1 4 9 -7 18 -14 21 -14 7z"/>
<path d="M767 1694 c3 -8 11 -14 19 -14 21 0 17 17 -5 23 -14 3 -18 1 -14 -9z"/>
<path d="M5290 1675 c-6 -8 -9 -19 -5 -25 11 -18 -11 -11 -30 10 -10 11 -28
20 -41 20 -25 0 -40 -15 -25 -25 6 -3 8 -12 4 -20 -3 -8 0 -15 5 -15 6 0 12
-10 14 -22 2 -13 19 -33 41 -47 20 -13 37 -31 37 -38 0 -22 40 -12 57 14 14
21 13 22 -6 18 -13 -2 -21 1 -21 11 0 8 5 14 10 14 6 0 10 7 10 15 0 8 -6 15
-14 15 -7 0 -19 7 -26 15 -10 12 -10 15 2 15 18 0 50 38 43 50 -9 15 -41 12
-55 -5z"/>
<path d="M818 1673 c7 -3 16 -2 19 1 4 3 -2 6 -13 5 -11 0 -14 -3 -6 -6z"/>
<path d="M3453 1655 c-11 -8 -23 -11 -27 -8 -3 3 -6 -1 -6 -10 0 -13 9 -17 34
-17 40 0 55 16 34 36 -12 12 -17 12 -35 -1z"/>
<path d="M666 1651 c-4 -6 -12 -9 -17 -6 -5 4 -9 -1 -9 -11 0 -14 2 -14 16 -3
13 10 17 10 25 -2 5 -8 9 -9 9 -4 0 20 -17 38 -24 26z"/>
<path d="M946 1651 c-3 -5 1 -11 9 -15 8 -3 15 -1 15 4 0 13 -18 22 -24 11z"/>
<path d="M4680 1644 c-11 -12 -10 -18 3 -31 15 -15 17 -14 27 11 5 15 10 29
10 32 0 10 -29 2 -40 -12z"/>
<path d="M1150 1639 c0 -5 5 -7 10 -4 6 3 10 8 10 11 0 2 -4 4 -10 4 -5 0 -10
-5 -10 -11z"/>
<path d="M5410 1627 c0 -7 6 -19 13 -26 10 -11 8 -11 -10 -2 -14 7 -24 8 -28
1 -3 -5 -2 -10 3 -10 6 0 8 -8 5 -19 -3 -10 0 -22 7 -26 7 -4 14 1 17 14 3 12
10 21 15 21 6 0 7 -7 4 -16 -3 -8 -2 -12 4 -9 17 10 12 72 -6 79 -22 8 -24 8
-24 -7z"/>
<path d="M2065 1614 c-55 -17 -95 -35 -140 -64 -16 -11 -36 -23 -42 -26 -7 -3
-13 -12 -13 -20 0 -14 -11 -18 -42 -15 -10 1 -18 -3 -18 -8 0 -6 7 -11 16 -11
8 0 12 -4 9 -10 -5 -9 15 -15 37 -11 4 0 5 -6 2 -14 -4 -9 0 -15 8 -15 18 0
58 29 40 30 -7 0 -11 4 -7 10 3 5 13 6 22 3 9 -4 19 1 25 10 5 10 18 17 29 17
12 0 17 4 13 11 -4 8 1 9 16 4 14 -5 20 -3 16 3 -4 6 8 8 34 5 24 -3 40 -2 40
4 0 6 19 9 48 6 82 -9 190 -5 212 7 12 6 24 9 28 6 3 -3 0 -6 -6 -6 -7 0 -12
-5 -12 -10 0 -6 11 -8 25 -4 19 5 24 3 20 -8 -5 -11 -21 -14 -76 -11 -55 4
-69 2 -64 -8 6 -9 -2 -11 -31 -6 -22 4 -63 3 -91 -2 -29 -4 -50 -4 -47 1 6 10
-24 23 -33 14 -4 -3 2 -13 13 -21 17 -13 38 -15 124 -15 20 0 22 -2 10 -10 -8
-5 -31 -10 -51 -10 -19 0 -63 -11 -96 -24 -63 -24 -75 -23 -86 7 -10 26 -34
20 -40 -10 -6 -32 8 -45 41 -38 12 3 22 1 22 -5 0 -15 16 -12 34 6 15 14 16
13 16 -10 0 -20 5 -26 23 -26 12 0 28 -4 35 -9 16 -10 63 9 59 24 -2 6 -18 15
-35 21 -33 10 -33 24 -1 24 10 0 24 7 33 15 13 14 16 13 26 -4 5 -11 10 -28
10 -39 0 -23 12 -29 60 -28 30 1 35 5 37 26 0 14 1 31 2 38 1 6 12 12 25 12
28 0 43 15 24 24 -7 3 4 4 24 1 20 -3 39 -1 43 5 3 5 12 10 18 10 21 -1 -36
-38 -67 -44 -23 -5 -27 -9 -18 -18 9 -9 19 -8 44 5 79 41 88 50 87 92 0 49
-22 76 -85 103 -49 21 -79 25 -179 28 -88 3 -133 0 -170 -12z m215 -159 c0 -8
5 -15 12 -15 6 0 9 -2 6 -5 -3 -3 -16 -1 -29 4 -13 5 -17 10 -9 11 13 0 13 1
0 10 -13 8 -12 10 3 10 9 0 17 -7 17 -15z"/>
<path d="M1035 1610 c3 -5 8 -10 11 -10 2 0 4 5 4 10 0 6 -5 10 -11 10 -5 0
-7 -4 -4 -10z"/>
<path d="M3120 1609 c0 -5 5 -7 10 -4 6 3 10 8 10 11 0 2 -4 4 -10 4 -5 0 -10
-5 -10 -11z"/>
<path d="M3384 1596 c-25 -11 -26 -13 -9 -17 11 -3 30 -3 41 0 17 5 19 9 10
17 -9 9 -20 8 -42 0z"/>
<path d="M3450 1599 c0 -5 5 -7 10 -4 6 3 10 8 10 11 0 2 -4 4 -10 4 -5 0 -10
-5 -10 -11z"/>
<path d="M3603 1580 c-18 -4 -44 -15 -58 -24 -24 -16 -60 -80 -56 -102 1 -7
-13 -17 -30 -23 -28 -10 -29 -12 -15 -26 10 -10 24 -14 35 -10 24 7 58 -23 53
-47 -4 -20 16 -34 30 -20 8 8 22 5 49 -9 62 -31 50 -61 -35 -86 -34 -11 -59
-43 -38 -50 16 -6 -3 -33 -24 -33 -8 0 -14 -4 -14 -8 0 -12 46 -32 73 -32 21
-1 57 -21 57 -33 0 -3 -13 0 -29 6 -23 9 -34 7 -55 -6 -24 -16 -26 -16 -52 8
-22 21 -33 24 -62 19 -32 -6 -35 -5 -29 15 5 22 -7 26 -49 15 -15 -4 -20 -13
-19 -34 1 -16 8 -36 15 -45 17 -21 4 -19 -35 5 -27 16 -31 24 -27 50 2 16 7
30 11 30 3 0 12 4 20 9 20 13 -4 51 -32 51 -12 0 -29 5 -37 10 -11 8 -9 9 11
5 22 -5 31 0 58 33 17 22 31 52 31 67 0 33 -16 24 -25 -15 -5 -21 -11 -27 -22
-23 -13 5 -13 7 1 15 9 5 16 16 16 25 0 14 -2 14 -20 -2 -16 -14 -22 -15 -35
-5 -19 16 -10 30 20 30 13 0 31 3 40 6 14 6 14 8 -1 25 -9 11 -25 19 -36 19
-10 0 -18 5 -18 11 0 5 -5 7 -12 3 -6 -4 -8 -3 -5 3 23 37 -230 119 -262 85
-7 -7 -16 -11 -19 -7 -4 3 0 11 8 16 12 9 12 10 -3 5 -10 -3 -21 -6 -23 -6 -3
0 -2 -4 1 -10 8 -13 -21 -13 -47 1 -14 8 -23 8 -27 1 -6 -9 -41 -19 -79 -21
-7 -1 -35 -21 -61 -46 -33 -31 -48 -53 -48 -71 0 -29 -11 -43 -21 -28 -4 6
-29 22 -57 35 -27 12 -54 25 -59 27 -18 9 8 -44 35 -73 22 -23 26 -34 18 -42
-14 -14 -5 -43 14 -43 7 0 24 18 37 40 30 47 44 50 65 10 9 -18 26 -32 43 -36
15 -3 54 -16 87 -29 33 -13 88 -26 123 -30 55 -6 61 -9 45 -20 -26 -20 -9 -29
29 -16 26 8 43 8 69 0 56 -20 69 -59 19 -59 -17 0 -53 -11 -82 -25 -28 -14
-53 -23 -56 -21 -2 3 -13 -4 -25 -15 -23 -21 -33 -24 -42 -10 -3 6 -19 3 -38
-6 -17 -9 -40 -21 -51 -26 -13 -6 -21 -5 -27 4 -4 8 -11 10 -15 6 -4 -4 -14
-1 -22 6 -13 10 -15 8 -9 -18 3 -17 2 -37 -4 -45 -7 -13 -9 -12 -9 1 0 9 -11
24 -25 33 -33 22 -32 32 5 40 31 6 43 36 15 36 -9 0 -15 9 -15 21 0 38 -53 74
-123 84 -38 6 -50 13 -57 30 -10 25 -56 41 -89 30 -13 -4 -27 2 -44 21 -24 25
-29 27 -90 22 -74 -6 -127 -36 -127 -70 0 -19 4 -20 43 -13 116 19 108 20 98
-6 -5 -14 -17 -24 -29 -25 -12 -1 -28 -6 -35 -12 -7 -7 -35 -13 -60 -14 -26
-2 -47 -6 -47 -9 0 -3 -11 -4 -25 -1 -20 3 -23 7 -14 18 9 11 8 14 -4 14 -9 0
-19 -5 -22 -10 -3 -6 -16 -8 -28 -5 -12 3 -34 7 -48 8 -14 1 -33 10 -43 20
-12 11 -26 16 -40 12 -15 -5 -17 -4 -7 3 15 11 -2 27 -19 17 -5 -3 -10 -2 -10
4 0 18 21 23 37 9 14 -11 14 -9 -1 20 -12 23 -22 32 -32 28 -9 -3 -29 1 -47
10 -17 9 -47 19 -67 21 -19 2 -47 8 -62 13 -31 10 -41 -3 -26 -35 7 -14 4 -13
-11 5 -11 14 -21 19 -21 13 0 -7 -8 -13 -17 -13 -14 0 -15 -2 -4 -9 7 -5 9
-11 4 -14 -5 -3 -15 -2 -23 3 -12 7 -11 12 5 31 20 22 20 22 0 12 -23 -12 -85
-5 -85 9 0 6 -11 7 -25 4 -18 -5 -25 -2 -25 8 0 7 -6 14 -12 13 -36 -1 -48 5
-48 23 0 12 5 17 13 14 22 -8 92 11 92 25 0 42 -203 86 -226 50 -5 -9 -9 -10
-9 -2 0 17 -39 3 -55 -20 -8 -12 -15 -25 -15 -29 0 -11 88 -10 95 1 3 6 20 4
40 -5 19 -8 38 -13 42 -12 5 2 9 -7 11 -19 3 -21 -1 -23 -40 -23 -53 0 -81
-15 -58 -30 10 -6 16 -6 18 1 3 6 9 6 18 -2 8 -6 11 -15 8 -20 -2 -5 7 -11 21
-15 26 -6 35 -37 13 -50 -7 -5 -3 -11 13 -17 18 -7 20 -11 9 -15 -8 -3 -18
-10 -22 -16 -5 -8 -14 -7 -29 2 -18 11 -23 12 -30 1 -6 -11 -9 -10 -15 4 -4
10 -22 20 -45 23 -23 4 -39 12 -39 20 0 8 -7 14 -15 14 -9 0 -18 7 -21 15 -6
16 -24 21 -24 7 0 -5 11 -15 25 -22 38 -20 23 -23 -19 -4 -25 12 -32 20 -24
26 9 6 7 10 -10 14 -12 4 -22 10 -22 16 0 5 10 4 21 -3 20 -10 21 -9 15 15 -4
15 -2 26 4 26 5 0 -6 16 -25 35 -19 20 -35 35 -37 35 -2 -1 -15 3 -29 9 -29
11 -72 4 -63 -10 3 -5 -2 -9 -11 -9 -9 0 -14 4 -11 8 3 5 7 21 10 36 4 23 3
26 -10 16 -7 -7 -14 -19 -14 -26 0 -8 -5 -14 -11 -14 -6 0 -9 6 -6 14 6 14
-21 32 -31 21 -3 -3 0 -5 6 -5 7 0 12 -4 12 -10 0 -5 -7 -10 -15 -10 -8 0 -15
4 -15 9 0 10 -38 3 -45 -9 -3 -5 2 -16 11 -25 15 -15 18 -15 37 2 19 18 19 17
12 -6 -4 -15 -3 -26 5 -31 9 -6 7 -11 -8 -19 -21 -11 -42 2 -22 14 18 11 11
20 -17 22 -88 6 -117 20 -106 50 8 20 23 16 23 -7 0 -11 5 -20 11 -20 6 0 8 9
4 21 -5 13 -3 19 3 15 5 -3 12 1 16 9 6 17 -9 21 -19 4 -5 -7 -13 -4 -26 7
-28 26 -14 33 56 31 48 -2 66 1 70 12 3 8 3 16 0 19 -3 3 -5 0 -5 -6 0 -7 -5
-12 -11 -12 -6 0 -9 7 -5 15 3 8 1 15 -5 15 -6 0 -7 5 -4 11 4 6 13 8 20 5 8
-3 15 0 17 5 2 6 16 12 31 12 15 1 27 6 27 10 0 12 -31 21 -39 11 -3 -5 -13
-11 -21 -13 -8 -2 -24 -6 -34 -9 -13 -3 -17 -1 -12 6 4 7 3 12 -3 12 -5 0 -13
-5 -17 -11 -5 -8 -9 -8 -14 1 -9 15 -83 16 -88 1 -2 -6 -8 -8 -13 -5 -5 3 -23
9 -39 14 -29 8 -30 8 -30 -25 0 -24 5 -35 19 -40 14 -4 18 -14 16 -38 -4 -53
31 -102 115 -162 43 -30 146 -85 159 -85 5 0 54 -21 107 -46 54 -25 132 -59
173 -75 42 -16 85 -34 96 -39 31 -14 142 -39 229 -51 44 -6 96 -19 115 -28 55
-27 156 -49 261 -56 52 -3 149 -17 215 -30 172 -34 335 -62 450 -76 129 -17
536 -18 825 -2 124 7 313 15 420 19 175 5 360 23 404 40 9 3 13 11 10 16 -4 6
-1 14 6 18 9 6 10 12 1 26 -10 18 -10 17 -11 -4 0 -14 -4 -21 -11 -17 -6 4 -8
13 -5 21 3 7 -1 20 -9 28 -8 7 -11 16 -8 20 4 3 2 6 -3 6 -5 0 -16 -15 -25
-32 -22 -46 -34 -44 -35 7 -1 45 9 50 19 10 4 -18 5 -18 6 3 1 12 7 22 16 22
8 0 15 4 15 9 0 5 -10 7 -22 3 -17 -4 -20 -2 -15 12 4 10 7 20 7 22 0 12 41 1
49 -13 10 -17 10 -17 11 0 0 9 8 17 18 18 10 0 12 3 5 6 -7 2 -13 9 -13 14 0
6 8 5 20 -1 18 -10 24 -7 21 12 0 4 5 5 13 2 8 -3 21 5 30 18 22 31 20 10 -3
-28 l-19 -31 27 5 c32 6 53 21 48 36 -2 6 5 18 15 27 16 15 16 17 3 23 -11 4
-14 13 -9 31 6 24 -2 31 -31 25 -5 -1 -22 -2 -37 -2 -15 -1 -29 -7 -32 -15 -3
-7 -12 -13 -21 -13 -12 0 -14 -4 -5 -20 8 -15 6 -23 -12 -40 -24 -22 -48 -26
-48 -8 0 6 -8 20 -17 31 -12 13 -14 21 -7 24 7 2 10 12 7 22 -3 11 11 36 37
66 39 45 40 48 24 66 -36 40 -84 28 -84 -20 0 -26 -28 -28 -36 -3 -20 61 -27
70 -64 82 -22 7 -44 9 -51 4 -19 -12 -41 -14 -63 -7 -18 5 -18 6 -2 15 19 10
13 28 -10 28 -8 0 -13 -4 -10 -8 2 -4 -7 -9 -22 -10 -26 -1 -25 0 8 18 30 16
28 27 -5 20 -30 -6 -64 -5 -94 1 -24 6 -38 4 -45 -6 -17 -20 -56 -29 -56 -12
0 10 -15 14 -55 14 -30 0 -52 -4 -49 -8 9 -15 -17 -10 -32 6 -24 24 -36 17
-18 -10 l16 -25 -40 3 c-21 1 -45 8 -51 15 -7 7 -8 12 -1 12 5 0 10 7 10 15 0
8 6 12 14 9 18 -7 30 27 14 39 -9 6 -8 7 5 3 10 -3 24 -6 30 -6 7 0 6 -5 -3
-11 -12 -9 -12 -10 3 -5 10 3 34 6 54 6 26 0 34 4 30 14 -4 10 7 15 36 20 23
3 53 9 66 12 15 5 22 3 18 -3 -4 -6 9 -10 31 -11 27 -1 33 1 22 8 -13 9 -13
10 0 10 9 0 21 -5 26 -10 6 -6 30 -12 52 -13 23 -1 42 -5 42 -10 0 -5 8 -6 18
-2 9 4 23 8 30 8 6 0 12 9 12 19 0 21 -55 58 -87 58 -12 0 -47 6 -77 14 -30 8
-91 14 -135 14 -45 0 -93 3 -109 5 -15 3 -42 2 -59 -3z m-398 -205 c11 -1 29
-3 40 -4 18 -2 18 -3 -3 -12 -13 -5 -28 -6 -34 -3 -6 4 -8 -1 -3 -15 6 -19 3
-21 -30 -21 -29 0 -36 -3 -31 -15 6 -17 -9 -21 -19 -5 -4 6 -11 8 -16 4 -5 -3
-17 0 -25 7 -12 10 -17 8 -29 -7 -12 -14 -14 -15 -9 -3 6 20 -15 37 -25 21
-10 -17 -214 -27 -237 -13 -17 11 -16 11 4 5 l24 -6 -21 21 c-22 22 -46 19
-37 -5 3 -9 0 -11 -12 -7 -33 12 -42 24 -32 43 8 15 14 16 42 6 18 -6 39 -15
47 -20 8 -5 24 -10 35 -12 12 -2 32 -6 45 -10 17 -5 22 -4 17 4 -9 15 57 27
81 14 13 -7 28 -5 57 9 27 13 44 16 56 9 14 -7 19 -5 23 11 5 18 10 20 39 14
18 -5 42 -9 53 -10z m-378 -11 c-3 -3 -12 -4 -19 -1 -8 3 -5 6 6 6 11 1 17 -2
13 -5z m1106 -6 c-2 -5 5 -8 16 -8 12 0 21 -4 21 -10 0 -5 -7 -10 -16 -10 -12
0 -15 -7 -12 -29 4 -28 3 -29 -25 -24 -16 3 -39 16 -51 28 l-22 22 34 13 c24
8 31 15 22 20 -8 5 -4 8 13 7 14 -1 23 -5 20 -9z m172 -49 c-3 -4 3 -12 12
-18 20 -11 17 -16 -14 -25 -28 -9 -45 19 -32 53 8 19 12 21 24 11 8 -7 12 -16
10 -21z m-900 -19 c7 -12 -2 -12 -30 0 -19 8 -19 9 2 9 12 1 25 -3 28 -9z m39
-5 c3 -8 1 -15 -4 -15 -6 0 -10 7 -10 15 0 8 2 15 4 15 2 0 6 -7 10 -15z
m-267 -54 c-5 -2 -14 2 -20 8 -14 14 -47 14 -47 1 0 -13 -57 -4 -110 17 l-35
13 50 -5 c36 -4 46 -3 35 4 -21 15 5 14 32 0 13 -7 18 -7 14 -1 -3 6 4 12 16
14 23 3 82 -43 65 -51z m313 9 c-19 -13 -30 -13 -30 0 0 6 10 10 23 10 18 0
19 -2 7 -10z m693 -34 c3 -8 -1 -17 -9 -20 -23 -9 -24 -8 -24 14 0 23 25 27
33 6z m-776 -12 c-3 -3 -12 -4 -19 -1 -8 3 -5 6 6 6 11 1 17 -2 13 -5z m-79
-11 c-10 -2 -28 -2 -40 0 -13 2 -5 4 17 4 22 1 32 -1 23 -4z m497 -3 c-3 -5
-13 -10 -21 -10 -8 0 -14 5 -14 10 0 6 9 10 21 10 11 0 17 -4 14 -10z m-2388
-36 c-3 -3 -12 -4 -19 -1 -8 3 -5 6 6 6 11 1 17 -2 13 -5z m2777 -23 c4 -5 0
-12 -6 -14 -8 -4 -4 -8 10 -13 23 -6 23 -7 -5 -21 -15 -8 -40 -13 -56 -10 -17
2 -33 -3 -43 -15 -9 -9 -32 -20 -51 -24 -29 -5 -33 -9 -27 -28 13 -39 10 -60
-11 -64 -11 -2 -24 -9 -30 -14 -7 -7 -1 -8 19 -4 19 5 36 1 54 -10 23 -15 25
-15 19 0 -4 9 -2 16 4 16 6 0 8 7 5 16 -4 12 5 8 29 -10 19 -15 35 -23 35 -17
0 5 -5 11 -10 13 -17 5 12 68 32 68 10 0 20 0 23 0 10 0 5 -15 -5 -16 -5 -1
-15 -2 -21 -3 -5 0 -7 -6 -4 -12 4 -5 12 -8 18 -6 7 2 17 -2 24 -9 18 -18 16
-24 -4 -17 -15 5 -14 3 2 -10 18 -15 21 -14 29 3 9 19 56 34 56 18 0 -5 7 -17
16 -25 14 -15 16 -14 12 8 -3 22 1 24 40 27 42 3 43 2 40 -24 -2 -15 -8 -29
-14 -31 -7 -2 -10 7 -8 24 2 15 1 20 -2 11 -3 -10 -13 -18 -22 -19 -11 0 -12
-2 -4 -6 6 -2 9 -9 6 -15 -8 -12 48 -7 58 6 3 5 14 2 23 -7 15 -16 14 -17 -17
-17 -18 0 -48 -4 -67 -10 -18 -5 -106 -10 -195 -11 -88 0 -222 -5 -296 -9 -74
-5 -202 -10 -285 -13 l-150 -4 100 12 c55 7 130 16 166 20 45 4 73 13 88 26
17 16 21 17 21 5 0 -25 24 -8 39 26 9 19 16 27 19 19 2 -7 -2 -17 -9 -22 -11
-7 -10 -9 4 -9 9 0 17 5 17 10 0 6 14 10 30 10 18 0 33 6 36 15 8 21 24 19 24
-2 1 -16 2 -16 16 2 8 11 21 19 29 17 7 -1 16 1 18 5 7 11 -74 10 -90 0 -8 -5
-13 -4 -13 3 0 6 -5 8 -11 4 -6 -3 -15 0 -20 7 -4 8 -14 14 -21 14 -7 1 -12 6
-10 13 1 7 -5 12 -13 12 -10 0 -14 9 -13 25 2 24 3 24 23 6 21 -20 38 -24 93
-22 24 1 35 7 43 25 8 16 25 28 53 35 22 6 55 19 71 30 32 21 80 27 89 12z
m-2564 -11 c0 -5 -2 -10 -4 -10 -3 0 -8 5 -11 10 -3 6 -1 10 4 10 6 0 11 -4
11 -10z m95 -25 c11 -1 31 -8 45 -14 24 -10 23 -11 -10 -7 -19 2 -53 11 -75
20 -29 12 -32 14 -10 10 17 -4 39 -8 50 -9z m245 11 c0 -3 -4 -8 -10 -11 -5
-3 -10 -1 -10 4 0 6 5 11 10 11 6 0 10 -2 10 -4z m2290 0 c0 -3 -4 -8 -10 -11
-5 -3 -10 -1 -10 4 0 6 5 11 10 11 6 0 10 -2 10 -4z m85 -6 c3 -5 1 -10 -4
-10 -6 0 -11 5 -11 10 0 6 2 10 4 10 3 0 8 -4 11 -10z m-983 -13 c-12 -7 -19
-16 -15 -21 4 -4 -1 -4 -10 0 -12 4 -17 2 -15 -7 2 -8 -5 -13 -15 -12 -12 0
-16 -4 -13 -13 3 -7 1 -16 -4 -19 -6 -4 -10 -2 -10 4 0 5 -7 17 -16 26 -15 15
-15 17 5 22 11 3 21 9 21 14 0 7 27 13 80 17 8 1 5 -4 -8 -11z m838 -37 c0 -5
-4 -10 -10 -10 -5 0 -10 5 -10 10 0 6 5 10 10 10 6 0 10 -4 10 -10z m-2056
-32 c-3 -5 -11 -5 -17 -2 -7 4 -8 3 -4 -2 5 -5 12 -9 15 -10 4 0 32 -7 62 -16
30 -9 66 -18 80 -20 14 -2 39 -12 57 -21 36 -19 57 -22 48 -6 -5 7 -2 7 11 0
11 -5 44 -15 74 -20 105 -19 188 -40 145 -37 -67 5 -256 37 -340 57 -44 10
-104 20 -132 21 -65 2 -87 13 -54 26 16 6 20 11 13 16 -7 4 -12 16 -12 26 0
16 3 17 29 7 17 -6 27 -15 25 -19z m2036 11 c0 -5 -4 -9 -10 -9 -5 0 -10 7
-10 16 0 8 5 12 10 9 6 -3 10 -10 10 -16z m220 6 c0 -8 -2 -15 -4 -15 -2 0 -6
7 -10 15 -3 8 -1 15 4 15 6 0 10 -7 10 -15z m-1210 -10 c0 -8 -8 -15 -17 -16
-11 0 -13 -3 -5 -6 22 -9 13 -20 -13 -15 -30 5 -32 18 -5 27 11 3 20 11 20 16
0 5 5 9 10 9 6 0 10 -7 10 -15z m623 -30 c7 -16 -8 -29 -23 -20 -10 6 -2 35
10 35 4 0 10 -7 13 -15z m-1816 -11 c-3 -3 -12 -4 -19 -1 -8 3 -5 6 6 6 11 1
17 -2 13 -5z m1608 -47 c26 -18 32 -26 23 -35 -17 -17 -25 -15 -31 6 -2 12
-18 22 -38 26 -30 7 -32 9 -14 16 11 5 21 9 23 9 2 1 18 -9 37 -22z m885 -43
c0 -2 -9 -4 -20 -4 -11 0 -20 4 -20 9 0 5 9 7 20 4 11 -3 20 -7 20 -9z m-1561
-16 c11 -11 14 -10 18 0 3 9 12 7 30 -8 29 -22 79 -28 67 -7 -6 9 -4 9 7 1 8
-6 31 -11 52 -10 20 0 37 -2 37 -6 0 -4 44 -9 98 -11 76 -2 65 -3 -52 -5 -131
-2 -248 6 -366 25 l-35 6 29 8 c16 4 33 6 37 3 4 -2 10 0 14 6 9 14 48 13 64
-2z"/>
<path d="M3133 1364 c-23 -24 -15 -34 19 -22 21 7 27 13 18 16 -8 3 -17 8 -20
12 -3 4 -11 2 -17 -6z"/>
<path d="M3970 920 c0 -5 5 -10 11 -10 5 0 7 5 4 10 -3 6 -8 10 -11 10 -2 0
-4 -4 -4 -10z"/>
<path d="M4055 910 c-8 -13 -1 -24 14 -19 6 3 7 10 2 18 -6 10 -10 10 -16 1z"/>
<path d="M3720 900 c0 -5 10 -10 23 -10 18 0 19 2 7 10 -19 13 -30 13 -30 0z"/>
<path d="M1738 1563 c7 -3 16 -2 19 1 4 3 -2 6 -13 5 -11 0 -14 -3 -6 -6z"/>
<path d="M3397 1564 c-11 -11 3 -24 18 -18 8 4 12 10 9 15 -6 11 -18 12 -27 3z"/>
<path d="M4195 1530 c-7 -12 2 -12 30 0 19 8 19 9 -2 9 -12 1 -25 -3 -28 -9z"/>
<path d="M1417 1512 c-21 -23 -15 -29 28 -32 64 -4 94 1 116 20 l24 19 -25 0
c-14 0 -48 3 -75 7 -42 5 -53 2 -68 -14z"/>
<path d="M2690 1495 c0 -8 4 -15 9 -15 5 0 14 7 21 15 10 13 9 15 -9 15 -12 0
-21 -6 -21 -15z"/>
<path d="M3355 1501 c-3 -6 -2 -17 2 -25 7 -11 10 -12 20 -1 10 10 9 16 -2 25
-9 7 -15 8 -20 1z"/>
<path d="M1006 1491 c-4 -5 -2 -12 3 -15 5 -4 12 -2 15 3 4 5 2 12 -3 15 -5 4
-12 2 -15 -3z"/>
<path d="M1567 1472 c-18 -19 -23 -42 -9 -42 4 0 23 13 42 30 l35 29 -26 1
c-14 0 -33 -8 -42 -18z"/>
<path d="M2035 1480 c-4 -6 3 -10 14 -10 25 0 27 6 6 13 -8 4 -17 2 -20 -3z"/>
<path d="M2529 1479 c-11 -7 -9 -9 8 -9 12 0 32 -14 47 -32 23 -29 26 -30 26
-12 0 35 -54 70 -81 53z"/>
<path d="M2656 1463 c-2 -10 -8 -33 -11 -52 -9 -43 12 -39 39 9 11 19 15 30 8
26 -8 -5 -12 0 -12 13 0 26 -17 28 -24 4z"/>
<path d="M4090 1449 c0 -11 -4 -17 -10 -14 -5 3 -7 0 -4 -8 3 -8 1 -18 -5 -22
-6 -3 -11 -12 -11 -18 0 -7 12 1 25 16 25 28 34 67 15 67 -5 0 -10 -9 -10 -21z"/>
<path d="M4040 1449 c0 -5 5 -7 10 -4 6 3 10 8 10 11 0 2 -4 4 -10 4 -5 0 -10
-5 -10 -11z"/>
<path d="M3377 1436 c-12 -30 12 -61 28 -36 3 6 1 10 -5 10 -6 0 -9 4 -6 8 2
4 1 14 -3 21 -6 10 -10 9 -14 -3z"/>
<path d="M3787 1443 c-15 -2 -25 -9 -22 -14 8 -12 45 -12 45 0 0 5 8 12 18 14
21 6 -2 6 -41 0z"/>
<path d="M3690 1430 c0 -5 5 -10 11 -10 5 0 7 5 4 10 -3 6 -8 10 -11 10 -2 0
-4 -4 -4 -10z"/>
<path d="M1600 1409 c-31 -56 117 -106 160 -54 18 22 5 33 -55 45 -30 6 -57
16 -60 21 -10 16 -34 10 -45 -12z"/>
<path d="M2542 1418 c5 -15 28 -23 28 -10 0 5 -7 13 -16 16 -10 4 -14 1 -12
-6z"/>
<path d="M1921 1391 c-11 -14 -22 -19 -38 -15 -33 9 -73 -4 -73 -22 0 -14 9
-16 49 -12 52 5 85 27 79 54 -2 12 -6 11 -17 -5z"/>
<path d="M2373 1368 c1 -7 -4 -12 -12 -13 -23 0 -24 -23 -2 -35 17 -8 21 -8
21 4 0 8 5 16 12 18 6 2 9 12 5 21 -7 19 -28 23 -24 5z"/>
<path d="M4600 1355 c-10 -13 -9 -15 9 -15 12 0 21 6 21 15 0 8 -4 15 -9 15
-5 0 -14 -7 -21 -15z"/>
<path d="M5000 1340 c0 -5 5 -10 11 -10 5 0 7 5 4 10 -3 6 -8 10 -11 10 -2 0
-4 -4 -4 -10z"/>
<path d="M4469 1319 c-11 -7 9 -49 23 -49 20 0 57 25 61 41 4 15 -1 18 -34 16
-22 -1 -44 -4 -50 -8z"/>
<path d="M1925 1310 c-18 -29 39 -45 98 -29 l42 12 -30 13 c-36 16 -101 18
-110 4z"/>
<path d="M4379 1310 c-12 -8 -12 -11 1 -24 21 -21 43 -7 26 16 -8 11 -17 14
-27 8z"/>
<path d="M4985 1312 c-5 -4 -11 -18 -13 -32 l-3 -25 16 23 c17 24 17 46 0 34z"/>
<path d="M2405 1300 c3 -5 14 -10 23 -10 15 0 15 2 2 10 -20 13 -33 13 -25 0z"/>
<path d="M2550 1300 c20 -13 33 -13 25 0 -3 6 -14 10 -23 10 -15 0 -15 -2 -2
-10z"/>
<path d="M4623 1290 c-3 -10 -14 -22 -24 -25 -21 -7 -26 -44 -8 -62 6 -6 18
-9 25 -6 8 3 14 0 14 -6 0 -6 7 -8 15 -5 8 4 15 1 15 -5 0 -39 95 34 95 74 1
19 -4 25 -20 25 -11 0 -29 7 -39 15 -29 22 -67 19 -73 -5z"/>
<path d="M2067 1242 c-38 -23 -34 -58 8 -56 31 2 99 24 112 38 13 13 -28 36
-61 35 -17 0 -43 -8 -59 -17z"/>
<path d="M2707 1159 c7 -7 15 -10 18 -7 3 3 -2 9 -12 12 -14 6 -15 5 -6 -5z"/>
<path d="M2868 1143 c7 -3 16 -2 19 1 4 3 -2 6 -13 5 -11 0 -14 -3 -6 -6z"/>
<path d="M4475 1140 c3 -5 8 -10 11 -10 2 0 4 5 4 10 0 6 -5 10 -11 10 -5 0
-7 -4 -4 -10z"/>
<path d="M3030 1132 c-15 -2 -30 -13 -37 -27 -11 -25 -10 -25 32 -25 31 0 45
5 49 17 9 22 -13 40 -44 35z"/>
<path d="M2890 1099 c-24 -10 -24 -11 -6 -24 12 -9 29 -12 45 -8 33 8 35 9 28
28 -7 17 -30 18 -67 4z"/>
<path d="M4727 993 c-54 -14 -96 -27 -93 -30 4 -5 207 45 215 52 8 9 -24 3
-122 -22z"/>
<path d="M4395 990 c3 -5 8 -10 11 -10 2 0 4 5 4 10 0 6 -5 10 -11 10 -5 0 -7
-4 -4 -10z"/>
<path d="M4365 949 c-4 -6 -5 -12 -2 -15 2 -3 7 2 10 11 7 17 1 20 -8 4z"/>
<path d="M4365 890 c-27 -7 -28 -8 -5 -8 14 0 34 3 45 8 25 11 2 11 -40 0z"/>
</g>
</svg>
